<svg xmlns="http://www.w3.org/2000/svg" width="111.915" height="111.915" viewBox="0 0 111.915 111.915">
  <g id="Group_140" data-name="Group 140" transform="translate(-144.755 -415.808)">
    <g id="phone" transform="translate(172.362 443.261)">
      <path id="Path_1014" data-name="Path 1014" d="M55.179,43.492c-1.181-2.231-7.1-6.642-7.1-6.642L45.813,35.4c-1.667-.95-3.678-1.057-4.63.638a38,38,0,0,1-3,3.284c-2.782,1.885-5.358,1.812-7.958-.789l-6.044-6.044-6.044-6.044c-2.6-2.6-2.674-5.177-.789-7.958a38,38,0,0,1,3.284-3c1.693-.951,1.588-2.963.638-4.63,0,0-4.318-7.368-8.093-9.366a4.138,4.138,0,0,0-4.863.731L5.639,4.886c-8.467,8.467-4.3,18.027,4.169,26.494l7.738,7.738,7.738,7.738c5.4,5.4,11.249,9.054,17.652,8.742,2.568-.1,5.776-1.508,8.841-4.574l2.67-2.67A4.14,4.14,0,0,0,55.179,43.492Z" transform="translate(0.053 0.049)" fill="#ffc947"/>
      <path id="Path_1015" data-name="Path 1015" d="M56.161,43.052c-2.113-3.995-9.452-8.327-9.774-8.516a5.831,5.831,0,0,0-2.848-.821,3.543,3.543,0,0,0-3.169,1.768A35.283,35.283,0,0,1,37.643,38.5c-2.5,1.7-4.459,1.5-6.624-.662L18.93,25.749c-2.151-2.152-2.349-4.134-.665-6.62A35.3,35.3,0,0,1,21.286,16.4a3.491,3.491,0,0,0,1.626-2.1,5.2,5.2,0,0,0-.686-3.927c-.182-.312-4.515-7.651-8.509-9.763a5.19,5.19,0,0,0-6.1.918L4.946,4.195C.722,8.418-.807,13.206.4,18.424,1.405,22.772,4.337,27.4,9.115,32.177L24.591,47.652C30.638,53.7,36.4,56.766,41.726,56.766h0c3.916,0,7.565-1.664,10.846-4.944l2.67-2.67A5.164,5.164,0,0,0,56.161,43.052Zm-2.406,4.612-2.67,2.67c-2.872,2.872-6.02,4.328-9.357,4.328h0c-4.745,0-10.01-2.859-15.647-8.5L10.6,30.688c-4.495-4.495-7.239-8.781-8.154-12.74C1.4,13.422,2.707,9.411,6.435,5.683L9.1,3.013a3.086,3.086,0,0,1,3.627-.545c3.467,1.834,7.636,8.9,7.672,8.957a3.236,3.236,0,0,1,.481,2.311,1.413,1.413,0,0,1-.719.879l-.159.109a31.033,31.033,0,0,0-3.481,3.221,8.683,8.683,0,0,0-1.294,2.806,14.912,14.912,0,0,1-1.552-5.137,1.066,1.066,0,0,0-1.156-.939,1.054,1.054,0,0,0-.939,1.157c.76,7.317,6.45,12.081,6.692,12.28.026.022.059.031.086.049L29.53,39.328c.046.046.095.087.141.133a.969.969,0,0,0,.112.165,21.96,21.96,0,0,0,12.207,5.56c.037,0,.074.005.109.005a1.053,1.053,0,0,0,.107-2.1,18.544,18.544,0,0,1-5.834-1.638,9.118,9.118,0,0,0,2.45-1.209,30.941,30.941,0,0,0,3.221-3.481l.109-.159a1.467,1.467,0,0,1,1.386-.783,3.787,3.787,0,0,1,1.794.539c1.978,1.16,7.443,4.8,8.968,7.678A3.072,3.072,0,0,1,53.756,47.664Z" transform="translate(0 -0.004)"/>
    </g>
    <g id="level-up" transform="translate(144.755 415.808)">
      <g id="Group_83" data-name="Group 83">
        <path id="Path_465" data-name="Path 465" d="M80.1,128.207a48.1,48.1,0,1,1,48.1-48.1A48.158,48.158,0,0,1,80.1,128.207Zm0-94.244a46.14,46.14,0,1,0,46.14,46.14A46.192,46.192,0,0,0,80.1,33.963Zm0,0" transform="translate(-24.146 -24.146)"/>
        <path id="Path_466" data-name="Path 466" d="M.982,56.939A.982.982,0,0,1,0,55.957,56.021,56.021,0,0,1,55.957,0a.982.982,0,0,1,0,1.963A54.055,54.055,0,0,0,1.963,55.957.982.982,0,0,1,.982,56.939Zm0,0"/>
        <path id="Path_467" data-name="Path 467" d="M242.945,1.963h-1.963a.982.982,0,0,1,0-1.963h1.963a.982.982,0,0,1,0,1.963Zm0,0" transform="translate(-181.098)"/>
        <path id="Path_468" data-name="Path 468" d="M224.982,280.939a.982.982,0,1,1,0-1.963,54.055,54.055,0,0,0,53.994-53.994.982.982,0,1,1,1.963,0A56.021,56.021,0,0,1,224.982,280.939Zm0,0" transform="translate(-169.024 -169.024)"/>
        <path id="Path_469" data-name="Path 469" d="M202.945,449.963h-1.963a.982.982,0,0,1,0-1.963h1.963a.982.982,0,0,1,0,1.963Zm0,0" transform="translate(-150.915 -338.049)"/>
        <path id="Path_470" data-name="Path 470" d="M368.835,17.963h-7.854a.982.982,0,0,1,0-1.963h7.854a.982.982,0,0,1,0,1.963Zm0,0" transform="translate(-271.646 -12.073)"/>
        <path id="Path_471" data-name="Path 471" d="M376.982,9.817A.982.982,0,0,1,376,8.835V.982a.982.982,0,1,1,1.963,0V8.835A.982.982,0,0,1,376.982,9.817Zm0,0" transform="translate(-283.72)"/>
        <path id="Path_472" data-name="Path 472" d="M424.835,69.963h-7.854a.982.982,0,1,1,0-1.963h7.854a.982.982,0,0,1,0,1.963Zm0,0" transform="translate(-313.902 -51.311)"/>
        <path id="Path_473" data-name="Path 473" d="M432.982,61.817a.982.982,0,0,1-.982-.982V52.982a.982.982,0,1,1,1.963,0v7.854A.982.982,0,0,1,432.982,61.817Zm0,0" transform="translate(-325.976 -39.238)"/>
      </g>
    </g>
  </g>
</svg>
