<svg xmlns="http://www.w3.org/2000/svg" width="128" height="167.719" viewBox="0 0 128 167.719">
  <g id="Group_156" data-name="Group 156" transform="translate(-139 -99.281)">
    <g id="Group_115" data-name="Group 115">
      <path id="Path_649" data-name="Path 649" d="M64,0A64,64,0,1,1,0,64,64,64,0,0,1,64,0Z" transform="translate(139 139)" fill="#ffc947"/>
      <path id="Subtraction_1" data-name="Subtraction 1" d="M886.173,938.442h0a64.221,64.221,0,0,1-16.177-21.362,63.665,63.665,0,0,1-4.439-12.994A64.37,64.37,0,0,1,864,890a64.019,64.019,0,1,1,115.9,37.459,64.481,64.481,0,0,1-8.606,9.677l.149-22.889c0-5.872-3.929-11.214-10.509-14.288a27.014,27.014,0,0,0-11.479-2.459l-20.585,1.019L908.275,897.5a27.041,27.041,0,0,0-11.479,2.459c-6.581,3.075-10.51,8.417-10.51,14.288l-.113,24.193Z" transform="translate(-725 -687)" fill="#e7e9f9"/>
      <g id="Layer_2" data-name="Layer 2" transform="translate(-16.832 99.281)">
        <g id="OBJECTS" transform="translate(0.691 -0.001)">
          <path id="Path_325" data-name="Path 325" d="M234.48,127.6v12.456a13.69,13.69,0,0,0,10.5,12.963,3.437,3.437,0,0,0-.149.945v11.721a4.067,4.067,0,0,0,8.117,0V153.964a3.5,3.5,0,0,0-.131-.875c6.053-1.548,10.5-6.683,10.5-12.8V127.6Z" transform="translate(-29.978 -15.984)" fill="#fff"/>
          <path id="Path_326" data-name="Path 326" d="M252.132,160.431a1.356,1.356,0,1,1-1.356-1.251,1.3,1.3,0,0,1,1.356,1.251Z" transform="translate(-31.85 -19.94)" fill="#fff2cf"/>
          <path id="Path_327" data-name="Path 327" d="M252.132,168.091a1.356,1.356,0,1,1-1.356-1.251,1.312,1.312,0,0,1,1.356,1.251Z" transform="translate(-31.85 -20.9)" fill="#fff2cf"/>
          <path id="Path_310" data-name="Path 310" d="M113.377,17.932A25.028,25.028,0,0,0,65.782,16.61c-2.01,2.191-20.859,23.182-17.044,38.83a.3.3,0,0,0,.057.115l7.894,9.207a.271.271,0,0,0,.451-.049l3.783-7.385a.279.279,0,0,1,.517.181l-1.978,9.026a.271.271,0,0,0,.148.3c1.756.821,14.968,6.926,20.326,7.738a26.341,26.341,0,0,0,8.616.09,26.325,26.325,0,0,0,8.616-.09c5.358-.821,18.57-6.918,20.318-7.738a.271.271,0,0,0,.148-.3l-1.969-9.026a.271.271,0,0,1,.509-.181l3.783,7.385a.271.271,0,0,0,.451.049l7.894-9.207a.32.32,0,0,0,.066-.115C131.971,40.67,116.659,21.772,113.377,17.932Z" transform="translate(128.546 30.27)" fill="#373449"/>
          <path id="Path_311" data-name="Path 311" d="M112.165,39.747V37.007a19.284,19.284,0,0,0-4.275-12.137A19.694,19.694,0,0,1,89.9,36.465H73.367v3.282h0c-3.422,0-6.187,3.332-6.187,7.443s2.765,7.435,6.187,7.435h0v.755A19.374,19.374,0,0,0,84.946,73.129v16.01a7.787,7.787,0,0,0,7.8,7.787h0a7.787,7.787,0,0,0,7.787-7.787V73.121A19.374,19.374,0,0,0,112.165,55.38v-.755c3.414,0,6.171-3.332,6.171-7.435S115.537,39.747,112.165,39.747Z" transform="translate(125.146 25.802)" fill="#fbc4a9"/>
          <path id="Path_312" data-name="Path 312" d="M96.633,85.311A19.243,19.243,0,0,1,88.87,83.67v5.9l11-4.554a20.089,20.089,0,0,1-3.282.271Z" transform="translate(121.255 15.252)" fill="#ffa06e"/>
          <ellipse id="Ellipse_5" data-name="Ellipse 5" cx="2.175" cy="6.089" rx="2.175" ry="6.089" transform="translate(238.214 77.169)" fill="#ff9b39"/>
          <ellipse id="Ellipse_6" data-name="Ellipse 6" cx="2.175" cy="6.089" rx="2.175" ry="6.089" transform="translate(194.132 77.169)" fill="#ff9b39"/>
          <path id="Path_313" data-name="Path 313" d="M110.683,62.169h3.808a2.175,2.175,0,0,0,2.175-2.175h0a2.175,2.175,0,0,0-2.175-2.175h-3.808a2.183,2.183,0,0,0-2.183,2.175h0a2.175,2.175,0,0,0,2.183,2.175Z" transform="translate(117.733 19.89)" fill="#ffa06e" opacity="0.32"/>
          <path id="Path_314" data-name="Path 314" d="M82.825,62.169h3.808a2.175,2.175,0,0,0,2.183-2.175h0a2.183,2.183,0,0,0-2.183-2.175H82.825a2.175,2.175,0,0,0-2.175,2.175h0A2.175,2.175,0,0,0,82.825,62.169Z" transform="translate(122.73 19.89)" fill="#ffa06e" opacity="0.32"/>
          <path id="Path_315" data-name="Path 315" d="M125.818,50.661a.41.41,0,0,1-.41-.41,3.1,3.1,0,0,0-3.077-3.43.41.41,0,0,1,0-.821,3.947,3.947,0,0,1,3.9,4.226.419.419,0,0,1-.41.435Z" transform="translate(115.326 22.011)" fill="#ffa06e"/>
          <path id="Path_316" data-name="Path 316" d="M69.908,50.661a.41.41,0,0,1-.41-.41A3.947,3.947,0,0,1,73.42,46a.41.41,0,0,1,0,.821,3.11,3.11,0,0,0-3.069,3.405.418.418,0,0,1-.443.435Z" transform="translate(124.733 22.011)" fill="#ffa06e"/>
          <path id="Path_650" data-name="Path 650" d="M69.908,50.661a.41.41,0,0,1-.41-.41A3.947,3.947,0,0,1,73.42,46a.41.41,0,0,1,0,.821,3.11,3.11,0,0,0-3.069,3.405.418.418,0,0,1-.443.435Z" transform="matrix(0.719, 0.695, -0.695, 0.719, 200.418, 5.798)" fill="#ffa06e"/>
          <path id="Path_317" data-name="Path 317" d="M109.751,54.008h0a1.132,1.132,0,0,0,1.132-1.132V50.6a1.132,1.132,0,0,0-1.132-1.132h0A1.132,1.132,0,0,0,108.61,50.6v2.273a1.132,1.132,0,0,0,1.141,1.132Z" transform="translate(117.713 21.388)" fill="#33322f"/>
          <path id="Path_318" data-name="Path 318" d="M106.612,47.743a3.668,3.668,0,0,0,1.51.066c.533-.049,1.067-.09,1.535-.107s1.009,0,1.551,0a3.627,3.627,0,0,0,1.493-.164c.394-.181.542-.673.049-1.256a4.144,4.144,0,0,0-3.217-1.116,4.021,4.021,0,0,0-3.085,1.329C106.038,47.111,106.2,47.587,106.612,47.743Z" transform="translate(118.144 22.163)" fill="#373449"/>
          <path id="Path_319" data-name="Path 319" d="M98.816,59.719H96.28a.41.41,0,1,1,0-.821h2.536a2.618,2.618,0,0,0,2.8-2.38v-1.51a.139.139,0,0,0-.1,0,3.028,3.028,0,0,1-3.184-2.831V47.41a.41.41,0,0,1,.821,0v4.735a2.207,2.207,0,0,0,2.363,2.01.886.886,0,0,1,.919.821v1.543A3.43,3.43,0,0,1,98.816,59.719Z" transform="translate(119.999 21.831)" fill="#ffa06e"/>
          <path id="Path_320" data-name="Path 320" d="M89.022,54.008h0a1.132,1.132,0,0,0,1.141-1.132V50.6a1.132,1.132,0,0,0-1.141-1.132h0A1.132,1.132,0,0,0,87.89,50.6v2.273A1.132,1.132,0,0,0,89.022,54.008Z" transform="translate(121.431 21.388)" fill="#33322f"/>
          <path id="Path_321" data-name="Path 321" d="M83.445,44.5a4.809,4.809,0,0,0,1.764.057c.632-.057,1.264-.1,1.813-.115s1.182,0,1.813,0a4.792,4.792,0,0,0,1.756-.172c.468-.2.64-.722.057-1.338a5.194,5.194,0,0,0-3.775-1.165,4.924,4.924,0,0,0-3.627,1.42C82.731,43.825,82.993,44.334,83.445,44.5Z" transform="translate(122.315 22.774)" fill="#373449"/>
          <path id="Path_375" data-name="Path 375" d="M290.677,14.818a3.2,3.2,0,0,1-1.146-1.155A3.6,3.6,0,0,1,289,11.678a2.187,2.187,0,0,1,.586-1.662,3.91,3.91,0,0,1,1.749-.875l2.79-.674c1.19-.315,1.749-.875,1.749-1.749a1.443,1.443,0,0,0-.665-1.181,3.849,3.849,0,0,0-2.266-.5,9.622,9.622,0,0,0-2.747.376,8.022,8.022,0,0,0-2.073.875,4.374,4.374,0,0,1-1.015-1.041,2.834,2.834,0,0,1-.429-1.592,2.572,2.572,0,0,1,.534-1.618,3.971,3.971,0,0,1,1.5-1.163,8.4,8.4,0,0,1,2.257-.656A17,17,0,0,1,293.818,0q4.216,0,6.377,1.872a6.184,6.184,0,0,1,2.161,4.916q0,5.712-8.074,7.321ZM289.5,19.5a3.429,3.429,0,1,1,3.429,3.429A3.429,3.429,0,0,1,289.5,19.5Z" transform="translate(-36.517 0.001)" fill="#ffc947"/>
        </g>
      </g>
    </g>
    <g id="Group_38" data-name="Group 38" transform="translate(170.905 31.081)">
      <path id="Path_252" data-name="Path 252" d="M39.334,26.106c-.348,4.136-4.658,4.789-4.658,4.789,3.7.174,4.622,5.028,4.622,5.028.079-3.461,4.764-5.079,4.764-5.079C40.553,30.634,39.334,26.106,39.334,26.106Z" transform="translate(-54.279 102.261)" fill="#ffc947"/>
      <path id="Path_253" data-name="Path 253" d="M43.133,29.345c-3.077-.184-4.232-4.3-4.243-4.342a.537.537,0,0,0-1.053.095c-.307,3.653-4.046,4.278-4.2,4.3a.537.537,0,0,0,.055,1.066c3.229.152,4.113,4.548,4.121,4.593a.537.537,0,0,0,.527.435l.045,0a.536.536,0,0,0,.492-.522c.069-3.043,4.36-4.57,4.4-4.585a.537.537,0,0,0-.144-1.043Zm-4.852,3.7a6.251,6.251,0,0,0-2.714-3.174A5.757,5.757,0,0,0,38.5,26.912a6.55,6.55,0,0,0,2.981,3.119,7.629,7.629,0,0,0-3.2,3.014Z" transform="translate(-53.316 103.224)" fill="#3a312a"/>
      <path id="Path_254" data-name="Path 254" d="M20.086,43.087c-.246,2.925-3.295,3.387-3.295,3.387,2.617.123,3.27,3.556,3.27,3.556.056-2.448,3.37-3.593,3.37-3.593C20.948,46.289,20.086,43.087,20.086,43.087Z" transform="translate(-42.79 91.353)" fill="#ffc947"/>
      <path id="Path_255" data-name="Path 255" d="M22.5,44.938c-2.063-.123-2.851-2.927-2.859-2.956a.537.537,0,0,0-1.053.1,3.36,3.36,0,0,1-2.84,2.9.537.537,0,0,0,.055,1.066c2.158.1,2.762,3.091,2.768,3.12a.537.537,0,0,0,.527.436l.045,0a.537.537,0,0,0,.492-.523c.046-2.042,2.979-3.088,3.008-3.1a.536.536,0,0,0-.144-1.043Zm-3.428,2.431a4.583,4.583,0,0,0-1.59-1.888,4.278,4.278,0,0,0,1.742-1.759,4.787,4.787,0,0,0,1.767,1.868A5.6,5.6,0,0,0,19.071,47.369Z" transform="translate(-41.827 92.316)" fill="#3a312a"/>
      <path id="Path_256" data-name="Path 256" d="M20.086,16.429c-.246,2.925-3.295,3.387-3.295,3.387,2.617.123,3.27,3.556,3.27,3.556.056-2.448,3.37-3.592,3.37-3.592C20.948,19.631,20.086,16.429,20.086,16.429Z" transform="translate(-42.79 108.477)" fill="#ffc947"/>
      <path id="Path_257" data-name="Path 257" d="M22.5,18.28c-2.063-.123-2.851-2.928-2.859-2.956a.537.537,0,0,0-1.053.1,3.36,3.36,0,0,1-2.84,2.9.537.537,0,0,0,.055,1.066c2.158.1,2.762,3.091,2.768,3.121a.537.537,0,0,0,.527.436l.045,0a.537.537,0,0,0,.492-.523c.046-2.042,2.979-3.088,3.008-3.1A.536.536,0,0,0,22.5,18.28Zm-3.428,2.43a4.586,4.586,0,0,0-1.59-1.888,4.278,4.278,0,0,0,1.742-1.759,4.787,4.787,0,0,0,1.767,1.868A5.613,5.613,0,0,0,19.071,20.71Z" transform="translate(-41.827 109.441)" fill="#3a312a"/>
    </g>
  </g>
</svg>
