<svg xmlns="http://www.w3.org/2000/svg" width="128" height="137.485" viewBox="0 0 128 137.485">
  <g id="Group_1115" data-name="Group 1115" transform="translate(-139 -129.515)">
    <path id="Path_649" data-name="Path 649" d="M64,0A64,64,0,1,1,0,64,64,64,0,0,1,64,0Z" transform="translate(139 139)" fill="#ffc947"/>
    <path id="Subtraction_1" data-name="Subtraction 1" d="M886.173,938.442h0a64.221,64.221,0,0,1-16.177-21.362,63.665,63.665,0,0,1-4.439-12.994A64.37,64.37,0,0,1,864,890a64.019,64.019,0,1,1,115.9,37.459,64.481,64.481,0,0,1-8.606,9.677l.149-22.889c0-5.872-3.929-11.214-10.509-14.288a27.014,27.014,0,0,0-11.479-2.459l-20.585,1.019L908.275,897.5a27.041,27.041,0,0,0-11.479,2.459c-6.581,3.075-10.51,8.417-10.51,14.288l-.113,24.193Z" transform="translate(-725 -687)" fill="#e7e9f9"/>
    <g id="Layer_2" data-name="Layer 2" transform="translate(-16.832 99.281)">
      <g id="OBJECTS" transform="translate(0.691 -0.001)">
        <path id="Path_325" data-name="Path 325" d="M234.48,127.6v12.456a13.69,13.69,0,0,0,10.5,12.963,3.437,3.437,0,0,0-.149.945v11.721a4.067,4.067,0,0,0,8.117,0V153.964a3.5,3.5,0,0,0-.131-.875c6.053-1.548,10.5-6.683,10.5-12.8V127.6Z" transform="translate(-29.978 -15.984)" fill="#fff"/>
        <path id="Path_326" data-name="Path 326" d="M252.132,160.431a1.356,1.356,0,1,1-1.356-1.251,1.3,1.3,0,0,1,1.356,1.251Z" transform="translate(-31.85 -19.94)" fill="#fff2cf"/>
        <path id="Path_327" data-name="Path 327" d="M252.132,168.091a1.356,1.356,0,1,1-1.356-1.251,1.312,1.312,0,0,1,1.356,1.251Z" transform="translate(-31.85 -20.9)" fill="#fff2cf"/>
        <path id="Path_310" data-name="Path 310" d="M113.377,17.932A25.028,25.028,0,0,0,65.782,16.61c-2.01,2.191-20.859,23.182-17.044,38.83a.3.3,0,0,0,.057.115l7.894,9.207a.271.271,0,0,0,.451-.049l3.783-7.385a.279.279,0,0,1,.517.181l-1.978,9.026a.271.271,0,0,0,.148.3c1.756.821,14.968,6.926,20.326,7.738a26.341,26.341,0,0,0,8.616.09,26.325,26.325,0,0,0,8.616-.09c5.358-.821,18.57-6.918,20.318-7.738a.271.271,0,0,0,.148-.3l-1.969-9.026a.271.271,0,0,1,.509-.181l3.783,7.385a.271.271,0,0,0,.451.049l7.894-9.207a.32.32,0,0,0,.066-.115C131.971,40.67,116.659,21.772,113.377,17.932Z" transform="translate(128.546 30.27)" fill="#373449"/>
        <path id="Path_311" data-name="Path 311" d="M112.165,39.747V37.007a19.284,19.284,0,0,0-4.275-12.137A19.694,19.694,0,0,1,89.9,36.465H73.367v3.282h0c-3.422,0-6.187,3.332-6.187,7.443s2.765,7.435,6.187,7.435h0v.755A19.374,19.374,0,0,0,84.946,73.129v16.01a7.787,7.787,0,0,0,7.8,7.787h0a7.787,7.787,0,0,0,7.787-7.787V73.121A19.374,19.374,0,0,0,112.165,55.38v-.755c3.414,0,6.171-3.332,6.171-7.435S115.537,39.747,112.165,39.747Z" transform="translate(125.146 25.802)" fill="#fbc4a9"/>
        <path id="Path_312" data-name="Path 312" d="M96.633,85.311A19.243,19.243,0,0,1,88.87,83.67v5.9l11-4.554a20.089,20.089,0,0,1-3.282.271Z" transform="translate(121.255 15.252)" fill="#ffa06e"/>
        <ellipse id="Ellipse_5" data-name="Ellipse 5" cx="2.175" cy="6.089" rx="2.175" ry="6.089" transform="translate(238.214 77.169)" fill="#ff9b39"/>
        <ellipse id="Ellipse_6" data-name="Ellipse 6" cx="2.175" cy="6.089" rx="2.175" ry="6.089" transform="translate(194.132 77.169)" fill="#ff9b39"/>
        <path id="Path_313" data-name="Path 313" d="M110.683,62.169h3.808a2.175,2.175,0,0,0,2.175-2.175h0a2.175,2.175,0,0,0-2.175-2.175h-3.808a2.183,2.183,0,0,0-2.183,2.175h0a2.175,2.175,0,0,0,2.183,2.175Z" transform="translate(117.733 19.89)" fill="#ffa06e" opacity="0.32"/>
        <path id="Path_314" data-name="Path 314" d="M82.825,62.169h3.808a2.175,2.175,0,0,0,2.183-2.175h0a2.183,2.183,0,0,0-2.183-2.175H82.825a2.175,2.175,0,0,0-2.175,2.175h0A2.175,2.175,0,0,0,82.825,62.169Z" transform="translate(122.73 19.89)" fill="#ffa06e" opacity="0.32"/>
        <path id="Path_315" data-name="Path 315" d="M125.818,50.661a.41.41,0,0,1-.41-.41,3.1,3.1,0,0,0-3.077-3.43.41.41,0,0,1,0-.821,3.947,3.947,0,0,1,3.9,4.226.419.419,0,0,1-.41.435Z" transform="translate(115.326 22.011)" fill="#ffa06e"/>
        <path id="Path_316" data-name="Path 316" d="M69.908,50.661a.41.41,0,0,1-.41-.41A3.947,3.947,0,0,1,73.42,46a.41.41,0,0,1,0,.821,3.11,3.11,0,0,0-3.069,3.405.418.418,0,0,1-.443.435Z" transform="translate(124.733 22.011)" fill="#ffa06e"/>
        <path id="Path_650" data-name="Path 650" d="M.422,0a.41.41,0,0,0-.41.41A3.947,3.947,0,0,0,3.934,4.662a.41.41,0,0,0,0-.821A3.11,3.11,0,0,1,.865.436.418.418,0,0,0,.422,0Z" transform="matrix(0.719, -0.695, 0.695, 0.719, 215.209, 90.174)" fill="#ffa06e"/>
        <path id="Path_317" data-name="Path 317" d="M109.751,54.008h0a1.132,1.132,0,0,0,1.132-1.132V50.6a1.132,1.132,0,0,0-1.132-1.132h0A1.132,1.132,0,0,0,108.61,50.6v2.273a1.132,1.132,0,0,0,1.141,1.132Z" transform="translate(117.713 21.388)" fill="#33322f"/>
        <path id="Path_318" data-name="Path 318" d="M106.612,47.743a3.668,3.668,0,0,0,1.51.066c.533-.049,1.067-.09,1.535-.107s1.009,0,1.551,0a3.627,3.627,0,0,0,1.493-.164c.394-.181.542-.673.049-1.256a4.144,4.144,0,0,0-3.217-1.116,4.021,4.021,0,0,0-3.085,1.329C106.038,47.111,106.2,47.587,106.612,47.743Z" transform="translate(118.144 22.163)" fill="#373449"/>
        <path id="Path_319" data-name="Path 319" d="M98.816,59.719H96.28a.41.41,0,1,1,0-.821h2.536a2.618,2.618,0,0,0,2.8-2.38v-1.51a.139.139,0,0,0-.1,0,3.028,3.028,0,0,1-3.184-2.831V47.41a.41.41,0,0,1,.821,0v4.735a2.207,2.207,0,0,0,2.363,2.01.886.886,0,0,1,.919.821v1.543A3.43,3.43,0,0,1,98.816,59.719Z" transform="translate(119.999 21.831)" fill="#ffa06e"/>
        <path id="Path_320" data-name="Path 320" d="M89.022,54.008h0a1.132,1.132,0,0,0,1.141-1.132V50.6a1.132,1.132,0,0,0-1.141-1.132h0A1.132,1.132,0,0,0,87.89,50.6v2.273A1.132,1.132,0,0,0,89.022,54.008Z" transform="translate(121.431 21.388)" fill="#33322f"/>
        <path id="Path_321" data-name="Path 321" d="M83.445,44.5a4.809,4.809,0,0,0,1.764.057c.632-.057,1.264-.1,1.813-.115s1.182,0,1.813,0a4.792,4.792,0,0,0,1.756-.172c.468-.2.64-.722.057-1.338a5.194,5.194,0,0,0-3.775-1.165,4.924,4.924,0,0,0-3.627,1.42C82.731,43.825,82.993,44.334,83.445,44.5Z" transform="translate(122.315 22.774)" fill="#373449"/>
      </g>
    </g>
  </g>
</svg>
