<svg xmlns="http://www.w3.org/2000/svg" width="138" height="184.741" viewBox="0 0 138 184.741">
  <g id="Logo" transform="translate(-0.057 0.376)">
    <g id="Layer_1" data-name="Layer 1">
      <path id="Path_483" data-name="Path 483" d="M175.276,181.688c0,14.333-12.187,21.657-23.4,21.657-9.078,0-14.649,3.424-14.649,13.536,0,4.132-.049,9.149-.049,12.527,0,7.157-4.642,6.9-12.992,6.9H65.564a5.572,5.572,0,0,1-5.572-5.707,5.646,5.646,0,0,1,5.684-5.435H98.571a5.646,5.646,0,0,0,5.684-5.435,5.572,5.572,0,0,0-5.57-5.707H65.564a5.572,5.572,0,0,1-5.572-5.707,5.644,5.644,0,0,1,5.684-5.433h45.633a5.647,5.647,0,0,0,5.684-5.435,5.572,5.572,0,0,0-5.57-5.707h-34.4a5.572,5.572,0,0,1-5.572-5.707A5.646,5.646,0,0,1,77.14,180.6H105.9a5.647,5.647,0,0,0,5.684-5.435,5.572,5.572,0,0,0-5.57-5.707H65.564a5.57,5.57,0,0,1-5.574-5.732,5.646,5.646,0,0,1,5.684-5.435h83.169S174.958,156.371,175.276,181.688Z" transform="translate(-48.576 -128.149)" fill="#0d0d0d"/>
      <path id="Path_484" data-name="Path 484" d="M67.339,831.026a10.2,10.2,0,0,1,.829-4.1,10.636,10.636,0,0,1,5.616-5.614,10.467,10.467,0,0,1,11.53,2.266,10.591,10.591,0,0,1,2.243,11.555,10.494,10.494,0,0,1-2.239,3.344,10.653,10.653,0,0,1-3.337,2.254,10.484,10.484,0,0,1-10.832-1.623v7.667a2.057,2.057,0,0,1-.508,1.4,1.712,1.712,0,0,1-1.355.58,1.883,1.883,0,0,1-1.375-.571,1.914,1.914,0,0,1-.571-1.412Zm3.833.013a6.481,6.481,0,0,0,.525,2.595,6.935,6.935,0,0,0,1.431,2.131,6.693,6.693,0,0,0,9.512,0,6.726,6.726,0,0,0,1.419-7.32,6.645,6.645,0,0,0-1.419-2.121,6.727,6.727,0,0,0-9.5,0,6.8,6.8,0,0,0-1.431,2.121,6.468,6.468,0,0,0-.535,2.6Z" transform="translate(-54.528 -664.396)" fill="#00a780"/>
      <path id="Path_485" data-name="Path 485" d="M196.6,783.356a1.872,1.872,0,0,1,.538-1.368,1.769,1.769,0,0,1,1.315-.55,2.007,2.007,0,0,1,.742.141,1.89,1.89,0,0,1,.624.4,1.969,1.969,0,0,1,.432.615,1.838,1.838,0,0,1,.162.761v19.119a3.478,3.478,0,0,0,.892,2.572,3.334,3.334,0,0,0,2.473.894,1.785,1.785,0,0,1,1.347.55,1.969,1.969,0,0,1,0,2.663,1.792,1.792,0,0,1-1.332.527,7.693,7.693,0,0,1-2.842-.517,6.658,6.658,0,0,1-2.283-1.474,6.849,6.849,0,0,1-1.522-2.283,7.583,7.583,0,0,1-.546-2.932Z" transform="translate(-159.195 -632.777)" fill="#00a780"/>
      <path id="Path_486" data-name="Path 486" d="M263.094,832.634h-3.9a5.647,5.647,0,0,1-2.389-.506,6.135,6.135,0,0,1-3.166-3.333,6.277,6.277,0,0,1-.453-2.374,5.679,5.679,0,0,1,.474-2.308,6.151,6.151,0,0,1,1.282-1.887,5.983,5.983,0,0,1,4.252-1.737h7.473a2,2,0,0,1,1.332.478,1.717,1.717,0,0,1,.559,1.385,2.092,2.092,0,0,1-.141.761,1.99,1.99,0,0,1-.38.63,1.843,1.843,0,0,1-.571.422,1.611,1.611,0,0,1-.691.15h-7.56a2.066,2.066,0,0,0-.871.19,2.31,2.31,0,0,0-.7.5,2.378,2.378,0,0,0-.474.71,2.137,2.137,0,0,0-.171.85,2.327,2.327,0,0,0,.171.906,2.047,2.047,0,0,0,.485.7,2.514,2.514,0,0,0,.713.462,2.128,2.128,0,0,0,.85.171h4.336a5.868,5.868,0,0,1,2.439.506,6.034,6.034,0,0,1,1.929,1.362,6.4,6.4,0,0,1,1.273,2,6.35,6.35,0,0,1-1.29,6.765,6.088,6.088,0,0,1-4.4,1.853h-8.941a1.623,1.623,0,0,1-1.25-.538,1.977,1.977,0,0,1-.495-1.4,1.826,1.826,0,0,1,.495-1.356,1.691,1.691,0,0,1,1.25-.5h8.618a2.9,2.9,0,0,0,.951-.162,2.678,2.678,0,0,0,.862-.483,2.473,2.473,0,0,0,.624-.786,2.365,2.365,0,0,0,.238-1.088,2.2,2.2,0,0,0-.226-1.033,2.066,2.066,0,0,0-.6-.711,2.884,2.884,0,0,0-.85-.43,3.738,3.738,0,0,0-.97-.173H263.1Z" transform="translate(-204.719 -664.398)" fill="#00a780"/>
      <path id="Path_487" data-name="Path 487" d="M356.65,789.749a1.884,1.884,0,0,1,.15-.744,1.979,1.979,0,0,1,1.027-1.044,1.818,1.818,0,0,1,.729-.15,1.974,1.974,0,0,1,.75.15,2.042,2.042,0,0,1,.632.409,1.981,1.981,0,0,1,.428.615,1.851,1.851,0,0,1,.162.761v4.22h8.555a1.83,1.83,0,0,1,1.356.571,1.879,1.879,0,0,1,.571,1.368,1.731,1.731,0,0,1-.55,1.3,1.9,1.9,0,0,1-1.377.533h-8.561v7.02a6.475,6.475,0,0,0,4.037,6.04,6.721,6.721,0,0,0,2.622.5,7.383,7.383,0,0,0,2.315-.356,5.352,5.352,0,0,0,1.992-1.195,2.093,2.093,0,0,1,1.442-.645,1.616,1.616,0,0,1,.635.129,1.787,1.787,0,0,1,.561.365,1.713,1.713,0,0,1,.38.559,1.773,1.773,0,0,1,.141.711,2.259,2.259,0,0,1-.19.871,2.353,2.353,0,0,1-.506.761,9.063,9.063,0,0,1-3.069,1.939,10.463,10.463,0,0,1-3.7.649,10.585,10.585,0,0,1-4.113-.8,10.287,10.287,0,0,1-5.589-5.49,10.108,10.108,0,0,1-.826-4.09Z" transform="translate(-288.801 -637.936)" fill="#00a780"/>
      <path id="Path_488" data-name="Path 488" d="M468.457,801v6.807a1.788,1.788,0,0,1-.552,1.332,1.84,1.84,0,0,1-1.332.538,1.9,1.9,0,0,1-1.364-.538,1.769,1.769,0,0,1-.561-1.332V783.323a1.8,1.8,0,0,1,.15-.732,1.755,1.755,0,0,1,.422-.592,2.212,2.212,0,0,1,.618-.4,1.936,1.936,0,0,1,2.093.4,1.819,1.819,0,0,1,.54,1.332l-.021,13.351,7.494-6.955a1.75,1.75,0,0,1,.614-.38,1.978,1.978,0,0,1,.677-.12,1.8,1.8,0,0,1,.732.152,1.9,1.9,0,0,1,.6.409,2.128,2.128,0,0,1,.42.6,1.712,1.712,0,0,1,.162.731,1.788,1.788,0,0,1-.6,1.358l-6.87,6.373,8.1,7.61a1.653,1.653,0,0,1,.516,1.248,1.933,1.933,0,0,1-.559,1.356,2.143,2.143,0,0,1-.592.42,1.647,1.647,0,0,1-.721.162,2.127,2.127,0,0,1-.744-.141,1.856,1.856,0,0,1-.677-.441Z" transform="translate(-376.253 -632.787)" fill="#00a780"/>
      <path id="Path_489" data-name="Path 489" d="M566.741,841.55a10.024,10.024,0,0,1-4.069-.829,10.484,10.484,0,0,1-5.534-5.593,10.608,10.608,0,0,1,2.232-11.544,10.346,10.346,0,0,1,14.734-.042,10.716,10.716,0,0,1,3.082,7.36v8.58a1.912,1.912,0,0,1-.571,1.391,1.872,1.872,0,0,1-1.387.571,1.727,1.727,0,0,1-1.332-.571,2,2,0,0,1-.519-1.4l-.023-.3a10.4,10.4,0,0,1-3.044,1.754,10.123,10.123,0,0,1-3.569.624Zm0-3.831a6.514,6.514,0,0,0,2.627-.527,6.609,6.609,0,0,0,2.093-1.44,6.826,6.826,0,0,0,1.4-7.311,6.618,6.618,0,0,0-10.821-2.117,6.737,6.737,0,0,0-1.4,7.3,6.933,6.933,0,0,0,1.4,2.129,6.468,6.468,0,0,0,4.693,1.967Z" transform="translate(-450.485 -664.399)" fill="#00a780"/>
      <rect id="Rectangle_149" data-name="Rectangle 149" width="138" height="138" rx="29" transform="translate(0.057 -0.376)" fill="#00a780"/>
      <path id="Path_490" data-name="Path 490" d="M175.276,181.688c0,14.333-12.187,21.657-23.4,21.657-9.078,0-14.649,3.424-14.649,13.536,0,4.132-.049,9.149-.049,12.527,0,7.157-4.642,6.9-12.992,6.9H65.564a5.572,5.572,0,0,1-5.572-5.707,5.646,5.646,0,0,1,5.684-5.435H98.571a5.646,5.646,0,0,0,5.684-5.435,5.572,5.572,0,0,0-5.57-5.707H65.564a5.572,5.572,0,0,1-5.572-5.707,5.644,5.644,0,0,1,5.684-5.433h45.633a5.647,5.647,0,0,0,5.684-5.435,5.572,5.572,0,0,0-5.57-5.707h-34.4a5.572,5.572,0,0,1-5.572-5.707A5.646,5.646,0,0,1,77.14,180.6H105.9a5.647,5.647,0,0,0,5.684-5.435,5.572,5.572,0,0,0-5.57-5.707H65.564a5.57,5.57,0,0,1-5.574-5.732,5.646,5.646,0,0,1,5.684-5.435h83.169S174.958,156.371,175.276,181.688Z" transform="translate(-48.576 -128.149)" fill="#fff"/>
    </g>
  </g>
</svg>
