<svg xmlns="http://www.w3.org/2000/svg" xmlns:xlink="http://www.w3.org/1999/xlink" width="101" height="151" viewBox="0 0 101 151">
  <defs>
    <clipPath id="clip-path">
      <rect id="Rectangle_7927" data-name="Rectangle 7927" width="101" height="151" transform="translate(-1 117)" fill="#fff" stroke="#707070" stroke-width="1"/>
    </clipPath>
  </defs>
  <g id="Mask_Group_5" data-name="Mask Group 5" transform="translate(1 -117)" clip-path="url(#clip-path)">
    <g id="Group_38" data-name="Group 38">
      <path id="Path_252" data-name="Path 252" d="M68.574,26.106c-2.535,30.1-33.9,34.848-33.9,34.848C61.6,62.221,68.313,97.542,68.313,97.542c.575-25.184,34.668-36.961,34.668-36.961C77.445,59.054,68.574,26.106,68.574,26.106Z" transform="translate(-10.762 127.354)" fill="#ffc947"/>
      <path id="Path_253" data-name="Path 253" d="M105.619,59.085C83.227,57.747,74.826,27.792,74.745,27.49a3.9,3.9,0,0,0-7.659.69C64.85,54.764,37.644,59.314,36.5,59.493a3.9,3.9,0,0,0,.4,7.761c23.5,1.106,29.926,33.1,29.989,33.421a3.91,3.91,0,0,0,3.834,3.167c.109,0,.219-.005.328-.013a3.9,3.9,0,0,0,3.578-3.8c.5-22.142,31.727-33.252,32.042-33.362a3.9,3.9,0,0,0-1.051-7.586ZM70.313,86.01c-3.531-8.146-9.653-17.975-19.748-23.1C58.2,59.254,67.245,52.727,71.911,41.38c4.036,7.992,10.93,17.905,21.689,22.7C85.777,68.347,75.588,75.545,70.313,86.01Z" transform="translate(-13.163 124.952)" fill="#3a312a"/>
      <path id="Path_254" data-name="Path 254" d="M40.765,43.087C38.972,64.373,16.791,67.735,16.791,67.735c19.045.9,23.792,25.879,23.792,25.879C40.989,75.8,65.1,67.47,65.1,67.47,47.037,66.39,40.765,43.087,40.765,43.087Z" transform="translate(-39.422 154.566)" fill="#ffc947"/>
      <path id="Path_255" data-name="Path 255" d="M67.739,65.975c-15.009-.9-20.747-21.3-20.8-21.507a3.9,3.9,0,0,0-7.659.692c-1.507,17.882-19.9,20.995-20.669,21.117a3.9,3.9,0,0,0,.4,7.761c15.706.739,20.1,22.493,20.141,22.707a3.908,3.908,0,0,0,3.833,3.175c.107,0,.216-.005.325-.013a3.9,3.9,0,0,0,3.581-3.8c.338-14.858,21.681-22.47,21.892-22.543a3.9,3.9,0,0,0-1.046-7.586ZM42.794,83.662c-2.4-4.908-6.09-10.272-11.573-13.741A31.132,31.132,0,0,0,43.9,57.124C46.649,62,50.8,67.417,56.757,70.719,51.942,73.585,46.375,77.85,42.794,83.662Z" transform="translate(-41.827 152.162)" fill="#3a312a"/>
      <path id="Path_256" data-name="Path 256" d="M40.765,16.429C38.972,37.715,16.791,41.075,16.791,41.075c19.045.9,23.792,25.879,23.792,25.879C40.989,49.14,65.1,40.812,65.1,40.812,47.037,39.732,40.765,16.429,40.765,16.429Z" transform="translate(-39.422 111.846)" fill="#ffc947"/>
      <path id="Path_257" data-name="Path 257" d="M67.739,39.321c-15.009-.9-20.747-21.3-20.8-21.51a3.9,3.9,0,0,0-7.659.692C37.771,36.385,19.38,39.5,18.609,39.62a3.9,3.9,0,0,0,.4,7.761c15.706.739,20.1,22.5,20.141,22.71a3.905,3.905,0,0,0,3.833,3.175c.107,0,.216,0,.325-.013a3.9,3.9,0,0,0,3.581-3.8c.338-14.858,21.681-22.47,21.892-22.543a3.9,3.9,0,0,0-1.046-7.586ZM42.794,57.005C40.39,52.1,36.7,46.733,31.221,43.264A31.132,31.132,0,0,0,43.9,30.467c2.751,4.877,6.907,10.293,12.859,13.6C51.945,46.931,46.375,51.2,42.794,57.005Z" transform="translate(-41.827 109.441)" fill="#3a312a"/>
    </g>
  </g>
</svg>
