<svg xmlns="http://www.w3.org/2000/svg" width="238.791" height="199.498" viewBox="0 0 238.791 199.498">
  <g id="password" transform="translate(0.002 0.001)">
    <g id="Security" transform="translate(-0.002 -0.001)">
      <g id="Security-2" data-name="Security" transform="translate(0)">
        <g id="Shield">
          <path id="Union_8" data-name="Union 8" d="M57.443,175.665l0,0a141.79,141.79,0,0,1-34.306-38.1C-3.684,94.5.2,48.616.2,48.616s15.178.7,25.942-10.06c9.634-9.63,5.473-27.663,5.473-27.663L86.742,0l36.432,7.2v0l18.7,3.693s-4.161,18.033,5.469,27.663c10.764,10.764,25.941,10.06,25.941,10.06s3.883,45.879-22.948,88.94c-27.125,43.54-63.6,54.383-63.6,54.383S73.709,188.084,57.443,175.665Zm30.218-11.932s26.14-7.771,45.573-38.965c19.218-30.855,16.436-63.726,16.436-63.726s-10.872.5-18.585-7.208c-6.9-6.906-3.92-19.822-3.92-19.822l-13.425-2.653.008-.02L87.678,26.186l-39.5,7.808s2.981,12.917-3.92,19.823c-7.713,7.712-18.584,7.207-18.584,7.207s-2.8,32.872,16.419,63.727a101.824,101.824,0,0,0,24.567,27.3C78.325,160.938,87.661,163.732,87.661,163.732Z" transform="translate(0 7.56)" fill="#333"/>
          <path id="Union_7" data-name="Union 7" d="M41.126,125.843l.006-.014a101.686,101.686,0,0,1-24.556-27.28C-2.646,67.694.14,34.822.14,34.822s10.855.5,18.568-7.208c6.9-6.9,3.92-19.822,3.92-19.822L62.129,0,88.211,5.154l13.425,2.638s-2.981,12.917,3.921,19.822c7.712,7.713,18.584,7.208,18.584,7.208s2.782,32.872-16.436,63.727c-19.433,31.194-45.573,38.965-45.573,38.965S52.8,134.736,41.126,125.843Z" transform="translate(25.528 33.762)" fill="#ffc947"/>
          <path id="Path_513" data-name="Path 513" d="M284.814,47.9c-1.49.132-.633-16.585-3.726-19.677s-19.793-2.269-19.669-3.726c.112-1.337,15.769-2.4,18.936-5.56S284.682.1,286.031,0c1.466-.108,1.3,16.042,4.281,19.044s19.1,2.774,19.044,4.177-16.1,2.157-19.338,5.382S286.135,47.783,284.814,47.9Z" transform="translate(-153.19 0.001)" fill="#f5f5f5"/>
          <path id="Path_514" data-name="Path 514" d="M358.9,172.109c-1.027.091-.435-11.377-2.55-13.5s-13.579-1.557-13.5-2.571c.079-.915,10.818-1.656,12.991-3.809s2.964-12.913,3.892-12.979c1-.075.886,11,2.935,13.058s13.1,1.9,13.058,2.865-11.041,1.482-13.248,3.7S359.8,172.03,358.9,172.109Z" transform="translate(-200.909 -81.6)" fill="#f5f5f5"/>
        </g>
        <g id="Password-2" data-name="Password" transform="translate(41.496 138.425)">
          <rect id="Rectangle_155" data-name="Rectangle 155" width="197.295" height="40.439" rx="20.22" fill="#ededed"/>
          <path id="Path_515" data-name="Path 515" d="M182.747,373.435a10.309,10.309,0,0,1-.414,3.039,6.86,6.86,0,0,1-1.271,2.393,5.725,5.725,0,0,1-2.045,1.561,6.541,6.541,0,0,1-2.77.559,6.7,6.7,0,0,1-2.215-.335,7.073,7.073,0,0,1-1.437-.642v5.8H170V366.612q.919-.224,2.3-.489a17.257,17.257,0,0,1,3.188-.265,8.155,8.155,0,0,1,3.01.53,6.475,6.475,0,0,1,2.281,1.507,6.6,6.6,0,0,1,1.461,2.38A9.109,9.109,0,0,1,182.747,373.435Zm-2.7,0a5.582,5.582,0,0,0-1.242-3.9,4.306,4.306,0,0,0-3.341-1.366,15.671,15.671,0,0,0-1.822.083,7.655,7.655,0,0,0-1.047.195v9.137a5.233,5.233,0,0,0,1.366.749,5.063,5.063,0,0,0,1.95.364,4.177,4.177,0,0,0,1.909-.414,3.481,3.481,0,0,0,1.3-1.114,4.765,4.765,0,0,0,.72-1.656A9.167,9.167,0,0,0,180.044,373.435Z" transform="translate(-141.115 -352.818)" fill="#575756"/>
          <path id="Path_516" data-name="Path 516" d="M212.822,365.727a7.522,7.522,0,0,1,2.633.414,4.272,4.272,0,0,1,1.726,1.138,4.33,4.33,0,0,1,.936,1.755,8.652,8.652,0,0,1,.277,2.244v9.05l-.936.153c-.414.066-.828.128-1.35.182s-1.043.108-1.627.153-1.167.07-1.743.07a9.413,9.413,0,0,1-2.256-.253,5.029,5.029,0,0,1-1.78-.791,3.643,3.643,0,0,1-1.172-1.437,5.031,5.031,0,0,1-.414-2.145,4.107,4.107,0,0,1,.489-2.07,3.867,3.867,0,0,1,1.321-1.391,6.248,6.248,0,0,1,1.95-.782,10.766,10.766,0,0,1,2.343-.248,7.856,7.856,0,0,1,.828.041c.277.029.542.066.791.112l.654.124.414.083v-.724a5.941,5.941,0,0,0-.141-1.267,2.9,2.9,0,0,0-.5-1.114,2.542,2.542,0,0,0-.989-.778,3.883,3.883,0,0,0-1.631-.294,12.275,12.275,0,0,0-2.24.182,7.652,7.652,0,0,0-1.437.377l-.306-2.145a8.074,8.074,0,0,1,1.656-.414A14.7,14.7,0,0,1,212.822,365.727Zm.224,12.979c.613,0,1.155,0,1.631-.041a7.285,7.285,0,0,0,1.184-.153v-4.318a3.455,3.455,0,0,0-.907-.236,9.893,9.893,0,0,0-1.519-.1,9.41,9.41,0,0,0-1.242.087,3.727,3.727,0,0,0-1.2.348,2.513,2.513,0,0,0-.907.725,1.9,1.9,0,0,0-.36,1.209,2.078,2.078,0,0,0,.89,1.938,4.645,4.645,0,0,0,2.426.542Z" transform="translate(-162.865 -352.74)" fill="#575756"/>
          <path id="Path_517" data-name="Path 517" d="M246.5,378.7a5.042,5.042,0,0,0,2.352-.414,1.408,1.408,0,0,0,.766-1.337,1.776,1.776,0,0,0-.749-1.5,11.837,11.837,0,0,0-2.484-1.242q-.828-.335-1.6-.683a5.589,5.589,0,0,1-1.321-.828,3.565,3.565,0,0,1-.894-1.143,3.648,3.648,0,0,1-.331-1.656,3.693,3.693,0,0,1,1.42-3.051,6.089,6.089,0,0,1,3.871-1.126,11.1,11.1,0,0,1,1.242.07c.414.045.787.1,1.143.166s.662.137.931.211.48.137.625.195L251,368.589a6.493,6.493,0,0,0-1.308-.46,8.48,8.48,0,0,0-2.145-.236,3.991,3.991,0,0,0-1.9.414,1.432,1.432,0,0,0-.828,1.35,1.842,1.842,0,0,0,.182.828,1.909,1.909,0,0,0,.555.654,4.554,4.554,0,0,0,.936.542c.373.17.828.348,1.337.53q1.031.389,1.838.766a5.921,5.921,0,0,1,1.379.878,3.387,3.387,0,0,1,.878,1.213,4.417,4.417,0,0,1,.306,1.739,3.457,3.457,0,0,1-1.49,3.039,7.418,7.418,0,0,1-4.248,1.031,11.019,11.019,0,0,1-3.01-.323,14.751,14.751,0,0,1-1.474-.489l.472-2.227c.3.112.77.277,1.42.5A8.181,8.181,0,0,0,246.5,378.7Z" transform="translate(-183.313 -352.737)" fill="#575756"/>
          <path id="Path_518" data-name="Path 518" d="M276.525,378.7a5.072,5.072,0,0,0,2.356-.414,1.416,1.416,0,0,0,.766-1.337,1.78,1.78,0,0,0-.753-1.5,11.782,11.782,0,0,0-2.484-1.242q-.828-.335-1.6-.683a5.618,5.618,0,0,1-1.325-.828,3.553,3.553,0,0,1-.89-1.143,3.643,3.643,0,0,1-.335-1.656,3.693,3.693,0,0,1,1.42-3.051,6.11,6.11,0,0,1,3.871-1.126,10.98,10.98,0,0,1,1.242.07c.414.046.791.1,1.143.166s.662.137.936.211.476.137.625.195l-.472,2.227a6.549,6.549,0,0,0-1.312-.46,8.46,8.46,0,0,0-2.145-.236,3.974,3.974,0,0,0-1.892.414,1.432,1.432,0,0,0-.807,1.35,1.793,1.793,0,0,0,.182.828,1.908,1.908,0,0,0,.555.654,4.644,4.644,0,0,0,.931.542c.373.17.828.348,1.337.53q1.031.389,1.838.766a5.92,5.92,0,0,1,1.379.878,3.337,3.337,0,0,1,.878,1.213,4.343,4.343,0,0,1,.306,1.739,3.457,3.457,0,0,1-1.49,3.039,7.418,7.418,0,0,1-4.248,1.031,11.008,11.008,0,0,1-3.006-.323,14.953,14.953,0,0,1-1.478-.489l.476-2.227c.294.112.77.277,1.42.5A8.156,8.156,0,0,0,276.525,378.7Z" transform="translate(-200.917 -352.737)" fill="#575756"/>
          <path id="Path_519" data-name="Path 519" d="M322.384,368.468a1.884,1.884,0,0,1-.5,1.308,1.89,1.89,0,1,1,0-2.616A1.888,1.888,0,0,1,322.384,368.468Zm0,11.116a1.888,1.888,0,0,1-.5,1.308,1.892,1.892,0,1,1,0-2.621,1.9,1.9,0,0,1,.5,1.329Z" transform="translate(-228.224 -353.254)" fill="#575756"/>
          <path id="Path_520" data-name="Path 520" d="M356.4,355.207a11.591,11.591,0,0,1-.211,2.244q-.207,1.072-.414,2.215l1.979-1.089a13.457,13.457,0,0,1,2.116-.915l.17-.058.778,2.339-.224.083a9.1,9.1,0,0,1-2.227.542c-.745.087-1.5.157-2.285.211q.919.783,1.726,1.519a10.872,10.872,0,0,1,1.507,1.71l.137.195-2.033,1.424-.112-.17a17.736,17.736,0,0,1-1.155-1.991q-.484-.985-.989-2.045-.5,1.056-.99,2.045a17.1,17.1,0,0,1-1.155,1.991l-.112.17-2.033-1.424.141-.195a10.646,10.646,0,0,1,1.5-1.71q.807-.737,1.726-1.519-1.167-.079-2.281-.211a9.136,9.136,0,0,1-2.232-.542l-.219-.083.778-2.339.166.058a13.506,13.506,0,0,1,2.12.915c.646.356,1.308.716,1.975,1.089-.149-.762-.29-1.5-.414-2.215a11.592,11.592,0,0,1-.207-2.244V355h2.484Z" transform="translate(-246.308 -346.455)" fill="#575756"/>
          <path id="Path_521" data-name="Path 521" d="M388.665,355.207a11.932,11.932,0,0,1-.207,2.244l-.435,2.215L390,358.577a13.456,13.456,0,0,1,2.116-.915l.17-.058.778,2.339-.224.083a9.105,9.105,0,0,1-2.227.542q-1.11.132-2.285.211.919.783,1.731,1.519a10.65,10.65,0,0,1,1.5,1.71l.137.195-2.033,1.424-.112-.17a18.4,18.4,0,0,1-1.155-1.991q-.484-.985-.989-2.045c-.331.7-.662,1.387-.985,2.045a17.805,17.805,0,0,1-1.159,1.991l-.108.17-2.037-1.424.141-.195a10.65,10.65,0,0,1,1.5-1.71q.828-.737,1.726-1.519-1.168-.079-2.281-.211a9.062,9.062,0,0,1-2.227-.542l-.224-.083.778-2.339.166.058a13.508,13.508,0,0,1,2.12.915c.65.356,1.308.716,1.975,1.089q-.219-1.143-.414-2.215a11.937,11.937,0,0,1-.207-2.244V355h2.5Z" transform="translate(-265.207 -346.455)" fill="#575756"/>
          <path id="Path_522" data-name="Path 522" d="M420.979,355.207a11.587,11.587,0,0,1-.207,2.244c-.141.716-.281,1.453-.414,2.215.667-.373,1.325-.733,1.975-1.089a13.506,13.506,0,0,1,2.12-.915l.166-.058.778,2.339-.219.083a9.136,9.136,0,0,1-2.231.542q-1.114.132-2.281.211.919.783,1.726,1.519a10.649,10.649,0,0,1,1.5,1.71l.141.195L422,365.627l-.112-.17a17.8,17.8,0,0,1-1.159-1.991c-.323-.658-.654-1.341-.985-2.045q-.5,1.056-.989,2.045a18.4,18.4,0,0,1-1.155,1.991l-.112.17-2.033-1.424.137-.195a10.472,10.472,0,0,1,1.507-1.71q.807-.737,1.726-1.519-1.172-.079-2.285-.211a9.107,9.107,0,0,1-2.227-.542l-.224-.083.778-2.339.17.058a13.462,13.462,0,0,1,2.116.915l1.979,1.089-.435-2.215a11.932,11.932,0,0,1-.207-2.244V355H421Z" transform="translate(-284.152 -346.455)" fill="#575756"/>
          <path id="Path_523" data-name="Path 523" d="M453.243,355.207a11.594,11.594,0,0,1-.211,2.244q-.207,1.072-.414,2.215c.667-.373,1.329-.733,1.979-1.089a13.454,13.454,0,0,1,2.116-.915l.166-.058.782,2.339-.224.083a9.153,9.153,0,0,1-2.227.542q-1.118.132-2.285.211.919.783,1.726,1.519a10.647,10.647,0,0,1,1.5,1.71l.141.195-2.033,1.424-.112-.17a17.109,17.109,0,0,1-1.155-1.991c-.327-.658-.654-1.341-.99-2.045-.335.7-.662,1.387-.989,2.045a17.118,17.118,0,0,1-1.155,1.991l-.112.17-2.033-1.424.141-.195a10.647,10.647,0,0,1,1.5-1.71q.828-.737,1.726-1.519-1.168-.079-2.285-.211a9.107,9.107,0,0,1-2.227-.542l-.224-.083.782-2.339.166.058a13.457,13.457,0,0,1,2.116.915l1.979,1.089q-.224-1.143-.414-2.215a11.588,11.588,0,0,1-.211-2.244V355h2.476Z" transform="translate(-303.057 -346.455)" fill="#575756"/>
          <path id="Path_524" data-name="Path 524" d="M485.563,355.207a11.589,11.589,0,0,1-.211,2.244q-.2,1.072-.414,2.215l1.979-1.089a13.461,13.461,0,0,1,2.116-.915l.166-.058.782,2.339-.224.083a9.1,9.1,0,0,1-2.227.542q-1.118.132-2.285.211.919.783,1.726,1.519a10.875,10.875,0,0,1,1.507,1.71l.137.195-2.033,1.424-.112-.17a17.114,17.114,0,0,1-1.155-1.991c-.327-.658-.654-1.341-.989-2.045-.335.7-.662,1.387-.99,2.045a17.113,17.113,0,0,1-1.155,1.991l-.112.17-2.033-1.424.141-.195a10.647,10.647,0,0,1,1.5-1.71q.828-.737,1.726-1.519-1.167-.079-2.281-.211a9.135,9.135,0,0,1-2.231-.542l-.224-.083.782-2.339.166.058a13.459,13.459,0,0,1,2.116.915c.65.356,1.312.716,1.979,1.089-.149-.762-.29-1.5-.414-2.215a11.593,11.593,0,0,1-.211-2.244V355H485.6Z" transform="translate(-321.996 -346.455)" fill="#575756"/>
        </g>
      </g>
    </g>
  </g>
</svg>
