<svg xmlns="http://www.w3.org/2000/svg" width="95.552" height="95.552" viewBox="0 0 95.552 95.552">
  <g id="Group_1s38" data-name="Group 1s38" transform="translate(-158.766 -164)">
    <g id="cancel" transform="translate(186.272 191.372)">
      <path id="Path_653" data-name="Path 653" d="M234.769,75.672l-12.9,12.9,12.9,12.9-1.7,1.7L211.25,88.57l21.818-14.6Z" transform="translate(-194.307 -68.038)" fill="#ff9b39"/>
      <path id="Path_654" data-name="Path 654" d="M45.659,12.832l-14.6,14.6,14.6,14.6-5.331,5.33-12.9-12.9-12.9,12.9L7.5,40.329l12.9-12.9L7.5,14.533,14.532,7.5l12.9,12.9,12.9-12.9Z" transform="translate(-6.898 -6.899)" fill="#ffc947"/>
      <path id="Path_655" data-name="Path 655" d="M28.415,20.533,40.887,8.06a.6.6,0,0,0,0-.851L33.855.177a.6.6,0,0,0-.851,0L20.532,12.65,8.059.177a.6.6,0,0,0-.851,0L.176,7.209a.6.6,0,0,0,0,.851L12.649,20.533,7.476,25.706a.6.6,0,0,0,.851.851l5.6-5.6a.6.6,0,0,0,0-.851L1.452,7.635,7.634,1.453,20.106,13.926a.6.6,0,0,0,.851,0L33.43,1.453l6.181,6.182L27.139,20.107a.6.6,0,0,0,0,.851L39.611,33.431,33.43,39.612,20.957,27.14a.6.6,0,0,0-.851,0L7.634,39.612,1.452,33.431l5.173-5.173a.6.6,0,1,0-.851-.851l-5.6,5.6a.6.6,0,0,0,0,.851l7.032,7.032a.6.6,0,0,0,.851,0L20.532,28.416,33,40.888a.6.6,0,0,0,.851,0l7.032-7.032a.6.6,0,0,0,0-.851Z" transform="translate(0 -0.001)"/>
    </g>
    <g id="Group_83" data-name="Group 83" transform="translate(158.766 164)">
      <path id="Path_465" data-name="Path 465" d="M73.071,114.141a41.071,41.071,0,1,1,41.071-41.071A41.117,41.117,0,0,1,73.071,114.141Zm0-80.465a39.394,39.394,0,1,0,39.394,39.394A39.439,39.439,0,0,0,73.071,33.676Zm0,0" transform="translate(-25.295 -25.295)" fill="#263238"/>
      <path id="Path_466" data-name="Path 466" d="M.838,48.614A.839.839,0,0,1,0,47.776,47.83,47.83,0,0,1,47.776,0a.838.838,0,0,1,0,1.676,46.152,46.152,0,0,0-46.1,46.1A.839.839,0,0,1,.838,48.614Zm0,0" fill="#263238"/>
      <path id="Path_467" data-name="Path 467" d="M242.515,1.676h-1.676a.838.838,0,1,1,0-1.676h1.676a.838.838,0,0,1,0,1.676Zm0,0" transform="translate(-189.709)" fill="#263238"/>
      <path id="Path_468" data-name="Path 468" d="M224.838,272.614a.838.838,0,1,1,0-1.676,46.152,46.152,0,0,0,46.1-46.1.838.838,0,1,1,1.676,0A47.83,47.83,0,0,1,224.838,272.614Zm0,0" transform="translate(-177.062 -177.062)" fill="#263238"/>
      <path id="Path_469" data-name="Path 469" d="M202.515,449.676h-1.676a.838.838,0,0,1,0-1.676h1.676a.838.838,0,1,1,0,1.676Zm0,0" transform="translate(-158.091 -354.124)" fill="#263238"/>
    </g>
  </g>
</svg>
