<svg xmlns="http://www.w3.org/2000/svg" width="13.177" height="22.587" viewBox="0 0 13.177 22.587">
  <path id="back" d="M2412.483,72.275c.125.107.19.152.243.208q3.366,3.493,6.731,6.988a2.455,2.455,0,0,1,.464,2.82,2.257,2.257,0,0,1-3.615.654c-.052-.05-.1-.1-.15-.153l-8.4-8.725a2.472,2.472,0,0,1-.008-3.545q4.2-4.375,8.408-8.75a2.257,2.257,0,0,1,2.746-.511,2.425,2.425,0,0,1,.593,3.791c-.54.578-1.094,1.142-1.642,1.713q-2.566,2.672-5.132,5.343A1.765,1.765,0,0,1,2412.483,72.275Z" transform="translate(-2406.999 -61)" fill="#333"/>
</svg>
