<svg xmlns="http://www.w3.org/2000/svg" width="28.62" height="31.106" viewBox="0 0 28.62 31.106">
  <g id="bell" transform="translate(0 0)">
    <path id="Path_525" data-name="Path 525" d="M67.785,64.206h-23.2a1.987,1.987,0,0,0,2.006-1.478c1.651-4.452-2.746-17.427,9.6-17.427s7.945,12.975,9.6,17.427a1.988,1.988,0,0,0,2.006,1.478Zm0,0" transform="translate(-41.874 -42.548)" fill="#ffc947"/>
    <path id="Path_526" data-name="Path 526" d="M35.3,358.731a2.247,2.247,0,0,1-2.246,2.246H9.852a2.246,2.246,0,1,1,0-4.493h23.2a2.246,2.246,0,0,1,2.246,2.246Zm0,0" transform="translate(-7.144 -334.826)" fill="#e58e13"/>
    <path id="Path_527" data-name="Path 527" d="M65.782,62.735H53.722a2.3,2.3,0,0,1-2.3-2.376c.17-5.5-.707-14.947,4.673-15.051-14.769.076-5.328,18.905-11.511,18.905h23.2a1.988,1.988,0,0,1-2.006-1.478Zm0,0" transform="translate(-41.877 -42.556)" fill="#e58e13"/>
    <path id="Path_528" data-name="Path 528" d="M135.661,358.731a2.247,2.247,0,0,1-2.246,2.246H116.7a2.246,2.246,0,0,1,0-4.493h16.711a2.246,2.246,0,0,1,2.246,2.246Zm0,0" transform="translate(-107.503 -334.826)" fill="#f7d360"/>
    <path id="Path_529" data-name="Path 529" d="M170.568,430.434a4.493,4.493,0,1,1-8.986,0Zm0,0" transform="translate(-151.765 -404.283)" fill="#e58e13"/>
    <path id="Path_530" data-name="Path 530" d="M219.917,453.246a4.5,4.5,0,0,1-3.074,2.945,4.5,4.5,0,0,1-2.292-1.5.889.889,0,0,1,.7-1.441Zm0,0" transform="translate(-201.332 -425.709)" fill="#f7d360"/>
    <path id="Path_531" data-name="Path 531" d="M202.421,10.067c0-.057.007-.114.007-.172a2.29,2.29,0,0,0-4.58,0c0,.058,0,.115.007.172" transform="translate(-185.828 -7.143)" fill="#e58e13"/>
    <path id="Path_532" data-name="Path 532" d="M25.911,21.2h0c-.894,0-1.4-.465-1.689-1.551a19.991,19.991,0,0,1-.316-4.429,28.66,28.66,0,0,0-.541-6.505.462.462,0,0,0-.9.22,27.965,27.965,0,0,1,.514,6.291,20.475,20.475,0,0,0,.347,4.66,3.712,3.712,0,0,0,.607,1.314H4.685a3.712,3.712,0,0,0,.607-1.314,20.462,20.462,0,0,0,.347-4.66c.016-2.7.035-5.754,1.139-8.094,1.242-2.634,3.706-3.914,7.533-3.914a9.844,9.844,0,0,1,5.111,1.174,6.2,6.2,0,0,1,2.51,2.935.462.462,0,0,0,.846-.372A7.191,7.191,0,0,0,19.9,3.6,8.767,8.767,0,0,0,17.053,2.54a2.751,2.751,0,0,0-5.486,0,8.851,8.851,0,0,0-2.732.989,7.124,7.124,0,0,0-2.893,3.2c-1.19,2.524-1.21,5.689-1.227,8.482A19.977,19.977,0,0,1,4.4,19.645C4.11,20.731,3.6,21.2,2.71,21.2h0a2.709,2.709,0,0,0,0,5.417H5.632a.462.462,0,1,0,0-.924H2.708a1.785,1.785,0,0,1,0-3.569h23.2a1.785,1.785,0,0,1,0,3.569H7.48a.462.462,0,0,0,0,.924h1.9a4.954,4.954,0,0,0,9.866,0h6.668a2.709,2.709,0,0,0,0-5.417ZM14.31.924A1.831,1.831,0,0,1,16.1,2.392a15.846,15.846,0,0,0-3.585,0A1.831,1.831,0,0,1,14.31.924Zm0,29.258a4.037,4.037,0,0,1-4-3.569h8.008a4.037,4.037,0,0,1-4,3.569Zm0,0"/>
    <path id="Path_533" data-name="Path 533" d="M353.979,34.341a5.993,5.993,0,0,1,1.64,1.564,8.884,8.884,0,0,1,1.633,5.423.462.462,0,0,0,.924,0,9.8,9.8,0,0,0-1.848-6.017,6.752,6.752,0,0,0-1.9-1.778.462.462,0,0,0-.448.808Zm0,0" transform="translate(-332.252 -31.442)"/>
    <path id="Path_534" data-name="Path 534" d="M411.75,37.367a4.893,4.893,0,0,1,1.821,4.17.462.462,0,0,0,.924,0,5.785,5.785,0,0,0-2.246-4.948.462.462,0,0,0-.5.778Zm0,0" transform="translate(-386.537 -34.298)"/>
    <path id="Path_535" data-name="Path 535" d="M44.809,41.79a.462.462,0,0,0,.462-.462A8.885,8.885,0,0,1,46.9,35.9a6.012,6.012,0,0,1,1.64-1.564.462.462,0,0,0-.448-.808,6.752,6.752,0,0,0-1.9,1.778,9.8,9.8,0,0,0-1.848,6.017A.462.462,0,0,0,44.809,41.79Zm0,0" transform="translate(-41.653 -31.441)"/>
    <path id="Path_536" data-name="Path 536" d="M11.353,42a.462.462,0,0,0,.462-.462,4.892,4.892,0,0,1,1.821-4.169.462.462,0,0,0-.5-.778,5.785,5.785,0,0,0-2.246,4.948.462.462,0,0,0,.462.462Zm0,0" transform="translate(-10.229 -34.299)"/>
  </g>
</svg>
