<svg xmlns="http://www.w3.org/2000/svg" width="19.47" height="25.198" viewBox="0 0 19.47 25.198">
  <g id="Mobile_number" data-name="Mobile number" transform="translate(-34.179 -8.786)">
    <g id="calculator" transform="translate(34.179 8.786)">
      <g id="Layer_1_66_" transform="translate(0)">
        <g id="Group_139" data-name="Group 139">
          <path id="Path_1005" data-name="Path 1005" d="M23.667,0H6.487A1.145,1.145,0,0,0,5.342,1.146V24.052A1.146,1.146,0,0,0,6.487,25.2h17.18a1.145,1.145,0,0,0,1.145-1.146V1.146A1.145,1.145,0,0,0,23.667,0ZM22.521,2.29V5.726H7.632V2.29ZM7.632,22.907V8.017H22.521V22.906H7.632Z" transform="translate(-5.342)" fill="#00a780"/>
          <path id="Path_1006" data-name="Path 1006" d="M14.7,16.844H12.323a.573.573,0,0,0-.573.573V19.8a.573.573,0,0,0,.573.573H14.7a.573.573,0,0,0,.573-.573V17.417A.571.571,0,0,0,14.7,16.844Z" transform="translate(-8.315 -7.814)" fill="#00a780"/>
          <path id="Path_1007" data-name="Path 1007" d="M23.165,16.844H20.788a.573.573,0,0,0-.573.573V19.8a.572.572,0,0,0,.573.573h2.377a.573.573,0,0,0,.573-.573V17.417A.572.572,0,0,0,23.165,16.844Z" transform="translate(-12.242 -7.814)" fill="#00a780"/>
          <path id="Path_1008" data-name="Path 1008" d="M31.63,16.844H29.252a.572.572,0,0,0-.572.573V19.8a.572.572,0,0,0,.572.573H31.63A.573.573,0,0,0,32.2,19.8V17.417A.572.572,0,0,0,31.63,16.844Z" transform="translate(-16.168 -7.814)" fill="#00a780"/>
          <path id="Path_1009" data-name="Path 1009" d="M14.7,25.555H12.323a.572.572,0,0,0-.573.572v2.379a.572.572,0,0,0,.573.572H14.7a.572.572,0,0,0,.573-.572V26.127A.571.571,0,0,0,14.7,25.555Z" transform="translate(-8.315 -11.855)" fill="#00a780"/>
          <path id="Path_1010" data-name="Path 1010" d="M23.165,25.555H20.788a.572.572,0,0,0-.573.572v2.379a.572.572,0,0,0,.573.572h2.377a.572.572,0,0,0,.573-.572V26.127A.571.571,0,0,0,23.165,25.555Z" transform="translate(-12.242 -11.855)" fill="#00a780"/>
          <path id="Path_1011" data-name="Path 1011" d="M14.7,34.266H12.323a.572.572,0,0,0-.573.571v2.379a.572.572,0,0,0,.573.573H14.7a.573.573,0,0,0,.573-.573V34.837A.571.571,0,0,0,14.7,34.266Z" transform="translate(-8.315 -15.896)" fill="#00a780"/>
          <path id="Path_1012" data-name="Path 1012" d="M23.165,34.266H20.788a.572.572,0,0,0-.573.571v2.379a.572.572,0,0,0,.573.573h2.377a.573.573,0,0,0,.573-.573V34.837A.571.571,0,0,0,23.165,34.266Z" transform="translate(-12.242 -15.896)" fill="#00a780"/>
          <path id="Path_1013" data-name="Path 1013" d="M31.63,25.555H29.252a.572.572,0,0,0-.572.572v7.049a.572.572,0,0,0,.572.573H31.63a.573.573,0,0,0,.573-.573V26.127A.572.572,0,0,0,31.63,25.555Z" transform="translate(-16.168 -11.855)" fill="#00a780"/>
        </g>
      </g>
    </g>
  </g>
</svg>
