<svg xmlns="http://www.w3.org/2000/svg" width="50" height="24" viewBox="0 0 50 24">
  <g id="Group_144" data-name="Group 144" transform="translate(0 -298)">
    <path id="Rectangle_7924" data-name="Rectangle 7924" d="M0,0H38A12,12,0,0,1,50,12v0A12,12,0,0,1,38,24H0a0,0,0,0,1,0,0V0A0,0,0,0,1,0,0Z" transform="translate(0 298)" fill="#ffc947" opacity="0.5"/>
    <g id="Group_127" data-name="Group 127" transform="translate(0 -221)">
      <g id="Ellipse_64" data-name="Ellipse 64" transform="translate(26 519)" fill="#00a780" stroke="#333" stroke-width="1">
        <circle cx="12" cy="12" r="12" stroke="none"/>
        <circle cx="12" cy="12" r="11.5" fill="none"/>
      </g>
      <g id="phone" transform="translate(31 524)">
        <path id="Path_1014" data-name="Path 1014" d="M13.5,10.8A8.571,8.571,0,0,0,11.86,9.272l-.523-.335c-.384-.219-.848-.244-1.068.147a8.763,8.763,0,0,1-.692.757A1.29,1.29,0,0,1,7.741,9.66L6.347,8.266,4.953,6.872a1.29,1.29,0,0,1-.182-1.835,8.763,8.763,0,0,1,.757-.692c.391-.219.366-.683.147-1.068a7.23,7.23,0,0,0-1.866-2.16.954.954,0,0,0-1.122.169L2.072,1.9c-1.953,1.953-.991,4.157.961,6.11L4.818,9.8,6.6,11.58A5.582,5.582,0,0,0,10.673,13.6a3.215,3.215,0,0,0,2.039-1.055l.616-.616A.955.955,0,0,0,13.5,10.8Z" transform="translate(-0.759 -0.763)" fill="#ffc947"/>
        <path id="Path_1015" data-name="Path 1015" d="M12.951,9.931A7.335,7.335,0,0,0,10.7,7.968a1.345,1.345,0,0,0-.657-.189.817.817,0,0,0-.731.408,8.136,8.136,0,0,1-.629.7,1.046,1.046,0,0,1-1.528-.153L4.365,5.941a1.05,1.05,0,0,1-.153-1.527,8.14,8.14,0,0,1,.7-.63A.805.805,0,0,0,5.284,3.3a1.2,1.2,0,0,0-.158-.906A7.325,7.325,0,0,0,3.163.143,1.2,1.2,0,0,0,1.757.355L1.14.97A3.366,3.366,0,0,0,.092,4.252,6.941,6.941,0,0,0,2.1,7.423l3.569,3.569a5.912,5.912,0,0,0,3.952,2.1h0a3.5,3.5,0,0,0,2.5-1.14l.616-.616A1.191,1.191,0,0,0,12.951,9.931ZM12.4,10.995l-.616.616a3.028,3.028,0,0,1-2.158,1h0a5.471,5.471,0,0,1-3.608-1.96L2.445,7.08A6.484,6.484,0,0,1,.565,4.142a2.874,2.874,0,0,1,.919-2.829L2.1.7A.712.712,0,0,1,2.936.572,7.055,7.055,0,0,1,4.7,2.638a.746.746,0,0,1,.111.533.326.326,0,0,1-.166.2L4.613,3.4a7.157,7.157,0,0,0-.8.743,2,2,0,0,0-.3.647A3.439,3.439,0,0,1,3.154,3.6a.246.246,0,0,0-.266-.216.243.243,0,0,0-.216.267A4.636,4.636,0,0,0,4.214,6.486c.006.005.014.007.02.011L6.81,9.073l.033.031a.223.223,0,0,0,.026.038,5.064,5.064,0,0,0,2.815,1.282h.025a.243.243,0,0,0,.025-.484,4.276,4.276,0,0,1-1.345-.378,2.1,2.1,0,0,0,.565-.279,7.135,7.135,0,0,0,.743-.8l.025-.037a.338.338,0,0,1,.32-.181.873.873,0,0,1,.414.124,6.744,6.744,0,0,1,2.068,1.771A.708.708,0,0,1,12.4,10.995Z" transform="translate(0 -0.004)" fill="#333"/>
      </g>
    </g>
  </g>
</svg>
