<svg xmlns="http://www.w3.org/2000/svg" width="84" height="84" viewBox="0 0 84 84">
  <g id="Group_151" data-name="Group 151" transform="translate(-57 -217)">
    <g id="plastic" transform="translate(57.976 217.98)">
      <circle id="Ellipse_68" data-name="Ellipse 68" cx="42" cy="42" r="42" transform="translate(-0.976 -0.98)" fill="#00a780"/>
      <circle id="Ellipse_69" data-name="Ellipse 69" cx="34.195" cy="34.195" r="34.195" transform="translate(6.828 -0.021)" fill="#4bc999"/>
      <path id="Path_1058" data-name="Path 1058" d="M332.393,104.247l-1.7,7.139a23.72,23.72,0,0,1-20.509-8.262,8.487,8.487,0,0,1,2.627-3.273,3.669,3.669,0,0,0,1.475-2.845l0-.179a3.6,3.6,0,0,0-.614-2.079,3.721,3.721,0,0,0-.744-.823,8.451,8.451,0,0,1-3.107-6.726l.086-4.28a8.466,8.466,0,0,1,5.493-7.756,2.59,2.59,0,0,0,1.688-2.363l.063-3.112,9.39.19-.063,3.112a2.586,2.586,0,0,0,1.591,2.43,8.469,8.469,0,0,1,5.173,7.972l-.088,4.279a8.449,8.449,0,0,1-3.377,6.594,3.668,3.668,0,0,0-1.461,2.6c-.009.083-.012.166-.014.25l0,.179a3.656,3.656,0,0,0,1.358,2.9A8.465,8.465,0,0,1,332.393,104.247Z" transform="translate(-260.173 -58.537)" fill="#e8e8e8"/>
      <path id="Path_1059" data-name="Path 1059" d="M326.544,69.882l-.043,2.1-5.9-.12a1.008,1.008,0,0,0-1.029.989,3.332,3.332,0,0,1-.82,2.38c-1.5,1.215-2.6,4.245-2.668,7.814L316,87.326a13.468,13.468,0,0,0,1.389,6.691A5.83,5.83,0,0,1,318,96.9l0,.179a5.822,5.822,0,0,1-.726,2.859,13.475,13.475,0,0,0-1.66,6.629l-.026,1.262a23.831,23.831,0,0,1-5.4-4.707,8.481,8.481,0,0,1,2.627-3.275,3.658,3.658,0,0,0,1.474-2.844l0-.179a3.662,3.662,0,0,0-1.358-2.9,8.442,8.442,0,0,1-3.106-6.726l.087-4.279a8.465,8.465,0,0,1,5.491-7.757,2.585,2.585,0,0,0,1.688-2.363l.063-3.111Z" transform="translate(-260.171 -58.54)" fill="#d6d6d6"/>
      <path id="Path_1060" data-name="Path 1060" d="M362.129,35.866l-.08,3.925L351.3,39.573l.08-3.925a2.1,2.1,0,0,1,2.143-2.058l6.542.133A2.1,2.1,0,0,1,362.129,35.866Z" transform="translate(-295.003 -28.226)" fill="#edbb4c"/>
      <path id="Path_1061" data-name="Path 1061" d="M378.4,36.2l-.08,3.925-7.638-.155.08-3.925a2.1,2.1,0,0,1,2.143-2.058l3.435.07A2.1,2.1,0,0,1,378.4,36.2Z" transform="translate(-311.276 -28.556)" fill="#ffd15c"/>
      <g id="Group_146" data-name="Group 146" transform="translate(65.301 20.972)">
        <path id="Path_1062" data-name="Path 1062" d="M412.7,140.77h0a2.225,2.225,0,0,1-2.179-2.269l.109-5.37a2.225,2.225,0,0,1,2.269-2.179h0a2.225,2.225,0,0,1,2.179,2.269l-.109,5.37A2.225,2.225,0,0,1,412.7,140.77Z" transform="translate(-410.024 -130.951)" fill="#fcfcfc"/>
        <path id="Path_1063" data-name="Path 1063" d="M411.945,301.364l-.055,2.718q-1.054.072-2.129.051-1.175-.024-2.319-.16l.055-2.7a2.225,2.225,0,0,1,4.449.09Z" transform="translate(-407.441 -272.138)" fill="#fcfcfc"/>
      </g>
      <path id="Path_1064" data-name="Path 1064" d="M70.916,64.47l-.059.169a3.661,3.661,0,0,0,.393,3.181,8.448,8.448,0,0,1,.869,7.357l-1.376,3.95A23.747,23.747,0,0,1,51.824,64.572a8.495,8.495,0,0,1,3.512-2.3,3.662,3.662,0,0,0,2.284-2.248l.059-.169a3.662,3.662,0,0,0-.392-3.181,8.45,8.45,0,0,1-.869-7.357l1.409-4.042A8.466,8.466,0,0,1,65.451,39.6a2.585,2.585,0,0,0,2.337-1.723l1.024-2.939,8.869,3.091-1.024,2.939a2.584,2.584,0,0,0,.76,2.8,8.467,8.467,0,0,1,2.447,9.183L78.455,57A8.45,8.45,0,0,1,73.2,62.222,3.66,3.66,0,0,0,70.916,64.47Z" transform="translate(-43.534 -29.362)" fill="#e8e8e8"/>
      <path id="Path_1065" data-name="Path 1065" d="M77.68,38.035l-.692,1.985L71.42,38.08a1.008,1.008,0,0,0-1.285.621,3.332,3.332,0,0,1-1.517,2.009c-1.8.692-3.783,3.232-4.958,6.6l-1.408,4.041a13.469,13.469,0,0,0-.753,6.792,5.83,5.83,0,0,1-.316,2.934l-.059.169a5.826,5.826,0,0,1-1.576,2.494,13.472,13.472,0,0,0-3.632,5.788L55.5,70.723a23.828,23.828,0,0,1-3.677-6.149,8.479,8.479,0,0,1,3.512-2.3,3.659,3.659,0,0,0,2.283-2.247l.059-.169a3.663,3.663,0,0,0-.391-3.181,8.443,8.443,0,0,1-.869-7.357l1.408-4.041a8.465,8.465,0,0,1,7.624-5.674,2.585,2.585,0,0,0,2.337-1.723l1.024-2.938Z" transform="translate(-43.533 -29.363)" fill="#d6d6d6"/>
      <path id="Path_1066" data-name="Path 1066" d="M164.81,7.814l-1.292,3.707L153.37,7.985l1.292-3.707a2.1,2.1,0,0,1,2.676-1.293l6.179,2.153A2.1,2.1,0,0,1,164.81,7.814Z" transform="translate(-128.8 -2.429)" fill="#279fc9"/>
      <path id="Path_1067" data-name="Path 1067" d="M180.18,13.171l-1.292,3.707-7.214-2.514,1.292-3.707a2.1,2.1,0,0,1,2.676-1.293l3.244,1.131A2.1,2.1,0,0,1,180.18,13.171Z" transform="translate(-144.17 -7.786)" fill="#34abe0"/>
      <g id="Group_147" data-name="Group 147" transform="translate(20.28 18.262)">
        <path id="Path_1068" data-name="Path 1068" d="M177.192,123.441h0a2.225,2.225,0,0,1-1.369-2.833l1.768-5.072a2.225,2.225,0,0,1,2.833-1.369h0A2.225,2.225,0,0,1,181.793,117l-1.768,5.072A2.225,2.225,0,0,1,177.192,123.441Z" transform="translate(-167.83 -114.043)" fill="#fcfcfc"/>
        <path id="Path_1069" data-name="Path 1069" d="M131.7,275.807l-.895,2.567q-1.024-.259-2.04-.612-1.11-.387-2.155-.871l.888-2.549a2.225,2.225,0,0,1,4.2,1.464Z" transform="translate(-126.613 -247.391)" fill="#fcfcfc"/>
      </g>
      <path id="Path_1070" data-name="Path 1070" d="M224.845,121.092l.022.178a3.661,3.661,0,0,0,1.76,2.679,8.448,8.448,0,0,1,4.035,6.213l.513,4.151a23.747,23.747,0,0,1-23.407-4.681,8.5,8.5,0,0,1,2.133-3.615,3.662,3.662,0,0,0,1.054-3.027l-.022-.178a3.663,3.663,0,0,0-1.759-2.679,8.449,8.449,0,0,1-4.035-6.213l-.525-4.248a8.466,8.466,0,0,1,4.328-8.461,2.585,2.585,0,0,0,1.333-2.58l-.382-3.089,9.321-1.152.382,3.089a2.585,2.585,0,0,0,1.922,2.177,8.467,8.467,0,0,1,6.258,7.152l.525,4.248a8.45,8.45,0,0,1-2.4,7.009A3.661,3.661,0,0,0,224.845,121.092Z" transform="translate(-171.775 -79.279)" fill="#e8e8e8"/>
      <path id="Path_1071" data-name="Path 1071" d="M219.217,94.4l.258,2.087-5.853.724a1.007,1.007,0,0,0-.878,1.125,3.333,3.333,0,0,1-.471,2.473c-1.307,1.416-1.963,4.572-1.525,8.115l.525,4.247a13.47,13.47,0,0,0,2.331,6.424,5.831,5.831,0,0,1,1.015,2.771l.022.178a5.823,5.823,0,0,1-.31,2.934,13.475,13.475,0,0,0-.7,6.8l.155,1.253a23.837,23.837,0,0,1-6.019-3.888,8.481,8.481,0,0,1,2.133-3.616A3.658,3.658,0,0,0,210.958,123l-.022-.178a3.662,3.662,0,0,0-1.758-2.679,8.442,8.442,0,0,1-4.035-6.213l-.525-4.247a8.465,8.465,0,0,1,4.326-8.462,2.585,2.585,0,0,0,1.333-2.58l-.382-3.088Z" transform="translate(-171.778 -79.285)" fill="#d6d6d6"/>
      <path id="Path_1072" data-name="Path 1072" d="M241.426,61.215l.482,3.9L231.241,66.43l-.482-3.9a2.1,2.1,0,0,1,1.827-2.343l6.494-.8A2.1,2.1,0,0,1,241.426,61.215Z" transform="translate(-193.77 -49.875)" fill="#ef4152"/>
      <path id="Path_1073" data-name="Path 1073" d="M257.579,61.215l.482,3.9-7.582.937-.482-3.9a2.1,2.1,0,0,1,1.827-2.343l3.41-.422A2.1,2.1,0,0,1,257.579,61.215Z" transform="translate(-209.924 -49.875)" fill="#ff525d"/>
      <g id="Group_148" data-name="Group 148" transform="translate(48.644 24.369)">
        <path id="Path_1074" data-name="Path 1074" d="M306.7,161.906h0a2.225,2.225,0,0,1-2.481-1.935l-.659-5.331a2.225,2.225,0,0,1,1.935-2.481h0a2.225,2.225,0,0,1,2.481,1.935l.659,5.331A2.225,2.225,0,0,1,306.7,161.906Z" transform="translate(-303.541 -152.142)" fill="#fcfcfc"/>
        <path id="Path_1075" data-name="Path 1075" d="M328.608,321l.333,2.7q-1.033.222-2.1.354-1.167.144-2.318.172l-.331-2.679a2.225,2.225,0,0,1,4.416-.546Z" transform="translate(-320.867 -292.292)" fill="#fcfcfc"/>
      </g>
      <path id="Path_1076" data-name="Path 1076" d="M108.808,191.708l-.184,2.042-.414,4.573-2.725,30.109a41.018,41.018,0,0,1-62.818,0l-3.141-34.68-.184-2.044Z" transform="translate(-33.053 -160.995)" fill="#ff9b39"/>
      <g id="Group_149" data-name="Group 149" transform="translate(1.634 25.589)">
        <path id="Path_1077" data-name="Path 1077" d="M176.575,232.969l-.61,6.729-.662,7.309-1.454,16.071a41.069,41.069,0,0,1-50.194,10.083L120.791,241.5a7.82,7.82,0,0,1,7.789-8.526Z" transform="translate(-103.051 -221.23)" fill="#ffc947"/>
        <path id="Path_1078" data-name="Path 1078" d="M87.462,167.985H11.925a1.62,1.62,0,0,1-1.62-1.62v-5a1.62,1.62,0,0,1,1.62-1.62H87.462a1.62,1.62,0,0,1,1.62,1.62v5A1.62,1.62,0,0,1,87.462,167.985Z" transform="translate(-10.305 -159.747)" fill="#ffc947"/>
      </g>
    </g>
    <g id="Logo" transform="translate(90.346 258.941)">
      <g id="Layer_1" data-name="Layer 1" transform="translate(0 0)">
        <path id="Path_483" data-name="Path 483" d="M77.789,161.874a3.408,3.408,0,0,1-3.613,3.344c-1.4,0-2.262.529-2.262,2.09,0,.638-.008,1.413-.008,1.934,0,1.105-.717,1.065-2.006,1.065H60.849a.86.86,0,0,1-.86-.881.872.872,0,0,1,.878-.839h5.079a.872.872,0,0,0,.878-.839.86.86,0,0,0-.86-.881H60.849a.86.86,0,0,1-.86-.881.872.872,0,0,1,.878-.839h7.046a.872.872,0,0,0,.878-.839.86.86,0,0,0-.86-.881H62.619a.86.86,0,0,1-.86-.881.872.872,0,0,1,.878-.839h4.44a.872.872,0,0,0,.878-.839.86.86,0,0,0-.86-.881H60.849a.86.86,0,0,1-.861-.885.872.872,0,0,1,.878-.839H73.708S77.74,157.965,77.789,161.874Z" transform="translate(-58.234 -153.549)" fill="#0d0d0d"/>
        <path id="Path_484" data-name="Path 484" d="M67.339,822.113a1.574,1.574,0,0,1,.128-.632,1.642,1.642,0,0,1,.867-.867,1.616,1.616,0,0,1,1.78.35,1.635,1.635,0,0,1,.346,1.784,1.621,1.621,0,0,1-.346.516,1.644,1.644,0,0,1-.515.348,1.619,1.619,0,0,1-1.673-.251v1.184a.318.318,0,0,1-.078.216.264.264,0,0,1-.209.09.291.291,0,0,1-.212-.088.3.3,0,0,1-.088-.218Zm.592,0a1,1,0,0,0,.081.4,1.071,1.071,0,0,0,.221.329,1.033,1.033,0,0,0,1.469,0,1.039,1.039,0,0,0,.219-1.13,1.025,1.025,0,0,0-.219-.328,1.038,1.038,0,0,0-.329-.221,1.037,1.037,0,0,0-1.359.549,1,1,0,0,0-.083.4Z" transform="translate(-65.37 -796.325)" fill="#00a780"/>
        <path id="Path_485" data-name="Path 485" d="M196.6,781.734a.289.289,0,0,1,.083-.211.273.273,0,0,1,.2-.085.311.311,0,0,1,.115.022.292.292,0,0,1,.1.061.3.3,0,0,1,.067.095.284.284,0,0,1,.025.117v2.952a.537.537,0,0,0,.138.4.515.515,0,0,0,.382.138.275.275,0,0,1,.208.085.3.3,0,0,1,0,.411.276.276,0,0,1-.206.081,1.188,1.188,0,0,1-.439-.08,1.028,1.028,0,0,1-.353-.228,1.058,1.058,0,0,1-.235-.353,1.171,1.171,0,0,1-.084-.453Z" transform="translate(-190.83 -758.425)" fill="#00a780"/>
        <path id="Path_486" data-name="Path 486" d="M254.4,822.364h-.6a.872.872,0,0,1-.369-.078.947.947,0,0,1-.489-.515.969.969,0,0,1-.07-.367.877.877,0,0,1,.073-.356.95.95,0,0,1,.2-.291.924.924,0,0,1,.657-.268h1.154a.309.309,0,0,1,.206.074.265.265,0,0,1,.086.214.323.323,0,0,1-.022.117.307.307,0,0,1-.059.1.285.285,0,0,1-.088.065.249.249,0,0,1-.107.023H253.8a.319.319,0,0,0-.135.029.357.357,0,0,0-.108.077.367.367,0,0,0-.073.11.33.33,0,0,0-.026.131.359.359,0,0,0,.026.14.316.316,0,0,0,.075.108.388.388,0,0,0,.11.071.329.329,0,0,0,.131.026h.669a.906.906,0,0,1,.377.078.932.932,0,0,1,.3.21.988.988,0,0,1,.2.309.981.981,0,0,1-.2,1.045.94.94,0,0,1-.68.286h-1.381a.251.251,0,0,1-.193-.083.305.305,0,0,1-.076-.216.282.282,0,0,1,.076-.209.261.261,0,0,1,.193-.077h1.331a.449.449,0,0,0,.147-.025.413.413,0,0,0,.133-.075.382.382,0,0,0,.1-.121.365.365,0,0,0,.037-.168.34.34,0,0,0-.035-.16.319.319,0,0,0-.093-.11.446.446,0,0,0-.131-.066.579.579,0,0,0-.15-.027H254.4Z" transform="translate(-245.397 -796.328)" fill="#00a780"/>
        <path id="Path_487" data-name="Path 487" d="M356.65,788.109a.291.291,0,0,1,.023-.115.306.306,0,0,1,.159-.161.28.28,0,0,1,.113-.023.3.3,0,0,1,.116.023.315.315,0,0,1,.1.063.307.307,0,0,1,.066.095.286.286,0,0,1,.025.117v.652h1.321a.282.282,0,0,1,.209.088.29.29,0,0,1,.088.211.268.268,0,0,1-.085.2.294.294,0,0,1-.213.082h-1.322v1.084a1,1,0,0,0,.623.933,1.038,1.038,0,0,0,.4.077,1.142,1.142,0,0,0,.357-.055.827.827,0,0,0,.308-.185.323.323,0,0,1,.223-.1.249.249,0,0,1,.1.02.276.276,0,0,1,.087.056.265.265,0,0,1,.059.086.274.274,0,0,1,.022.11.349.349,0,0,1-.029.135.363.363,0,0,1-.078.117,1.4,1.4,0,0,1-.474.3,1.616,1.616,0,0,1-.572.1,1.634,1.634,0,0,1-.635-.123,1.588,1.588,0,0,1-.863-.848,1.561,1.561,0,0,1-.128-.632Z" transform="translate(-346.182 -764.61)" fill="#00a780"/>
        <path id="Path_488" data-name="Path 488" d="M465.236,784.47v1.051a.276.276,0,0,1-.085.206.284.284,0,0,1-.206.083.294.294,0,0,1-.211-.083.273.273,0,0,1-.087-.206V781.74a.278.278,0,0,1,.023-.113.271.271,0,0,1,.065-.091.34.34,0,0,1,.1-.062.3.3,0,0,1,.323.062.281.281,0,0,1,.083.206l0,2.062,1.157-1.074a.27.27,0,0,1,.095-.059.306.306,0,0,1,.1-.018.279.279,0,0,1,.113.023.293.293,0,0,1,.093.063.329.329,0,0,1,.065.093.264.264,0,0,1,.025.113.276.276,0,0,1-.093.21l-1.061.984,1.25,1.175a.255.255,0,0,1,.08.193.3.3,0,0,1-.086.209.331.331,0,0,1-.091.065.254.254,0,0,1-.111.025.328.328,0,0,1-.115-.022.287.287,0,0,1-.1-.068Z" transform="translate(-451.007 -758.437)" fill="#00a780"/>
        <path id="Path_489" data-name="Path 489" d="M557.929,823.742a1.548,1.548,0,0,1-.628-.128,1.619,1.619,0,0,1-.855-.864,1.638,1.638,0,0,1,.345-1.782,1.6,1.6,0,0,1,2.275-.006,1.655,1.655,0,0,1,.476,1.137v1.325a.3.3,0,0,1-.088.215.289.289,0,0,1-.214.088.267.267,0,0,1-.206-.088.309.309,0,0,1-.08-.216l0-.047a1.607,1.607,0,0,1-.47.271A1.563,1.563,0,0,1,557.929,823.742Zm0-.592a1.006,1.006,0,0,0,.406-.081,1.02,1.02,0,0,0,.323-.222,1.054,1.054,0,0,0,.216-1.129,1.022,1.022,0,0,0-1.671-.327,1.052,1.052,0,0,0-.216.327,1.041,1.041,0,0,0,0,.8,1.071,1.071,0,0,0,.216.329,1,1,0,0,0,.725.3Z" transform="translate(-539.987 -796.33)" fill="#00a780"/>
        <rect id="Rectangle_149" data-name="Rectangle 149" width="22" height="21" rx="3" transform="translate(-0.346 0.059)" fill="#00a780"/>
        <path id="Path_490" data-name="Path 490" d="M77.789,161.874a3.408,3.408,0,0,1-3.613,3.344c-1.4,0-2.262.529-2.262,2.09,0,.638-.008,1.413-.008,1.934,0,1.105-.717,1.065-2.006,1.065H60.849a.86.86,0,0,1-.86-.881.872.872,0,0,1,.878-.839h5.079a.872.872,0,0,0,.878-.839.86.86,0,0,0-.86-.881H60.849a.86.86,0,0,1-.86-.881.872.872,0,0,1,.878-.839h7.046a.872.872,0,0,0,.878-.839.86.86,0,0,0-.86-.881H62.619a.86.86,0,0,1-.86-.881.872.872,0,0,1,.878-.839h4.44a.872.872,0,0,0,.878-.839.86.86,0,0,0-.86-.881H60.849a.86.86,0,0,1-.861-.885.872.872,0,0,1,.878-.839H73.708S77.74,157.965,77.789,161.874Z" transform="translate(-58.234 -153.549)" fill="#fff"/>
      </g>
    </g>
  </g>
</svg>
