<svg xmlns="http://www.w3.org/2000/svg" width="50" height="24" viewBox="0 0 50 24">
  <g id="Group_146" data-name="Group 146" transform="translate(0 -416)">
    <path id="Rectangle_7926" data-name="Rectangle 7926" d="M0,0H38A12,12,0,0,1,50,12v0A12,12,0,0,1,38,24H0a0,0,0,0,1,0,0V0A0,0,0,0,1,0,0Z" transform="translate(0 416)" fill="#ffc947" opacity="0.5"/>
    <g id="Group_129" data-name="Group 129" transform="translate(0 -217)">
      <g id="Ellipse_67" data-name="Ellipse 67" transform="translate(26 633)" fill="#00a780" stroke="#333" stroke-width="1">
        <circle cx="12" cy="12" r="12" stroke="none"/>
        <circle cx="12" cy="12" r="11.5" fill="none"/>
      </g>
      <g id="logout" transform="translate(33 639.992)">
        <path id="Path_1049" data-name="Path 1049" d="M32.811,7.909a1.319,1.319,0,0,1-1.317,1.317H30.286a.438.438,0,0,1-.41-.283L26.694.6a.439.439,0,0,1,.41-.6h4.39a1.319,1.319,0,0,1,1.317,1.317Zm0,0" transform="translate(-26.117 0)" fill="#ffc947"/>
        <path id="Path_1050" data-name="Path 1050" d="M19.731,17.434v7.9a.549.549,0,0,1-.549.549.585.585,0,0,1-.176-.026l-2.634-.878A.556.556,0,0,1,16,24.458v-7.9a.549.549,0,0,1,.549-.549.585.585,0,0,1,.176.026l2.634.878A.556.556,0,0,1,19.731,17.434Zm0,0" transform="translate(-15.671 -15.671)" fill="#ffc947"/>
        <path id="Path_1051" data-name="Path 1051" d="M3.232,10.567.594,9.688A.882.882,0,0,1,0,8.854V.953A.884.884,0,0,1,1.157.119L3.795,1a.882.882,0,0,1,.595.833v7.9a.879.879,0,0,1-.878.878.921.921,0,0,1-.28-.043ZM.658.953v7.9a.227.227,0,0,0,.148.21l2.626.876a.229.229,0,0,0,.3-.208v-7.9a.227.227,0,0,0-.148-.21L.956.745A.25.25,0,0,0,.878.734a.22.22,0,0,0-.22.22Zm0,0" transform="translate(0 -0.067)" fill="#64b5f6"/>
        <path id="Path_1052" data-name="Path 1052" d="M281.831,208.666h-4.17a.329.329,0,0,1,0-.658h4.17a.329.329,0,0,1,0,.658Zm0,0" transform="translate(-271.626 -203.72)" fill="#333"/>
        <path id="Path_1053" data-name="Path 1053" d="M400.333,131.921a.329.329,0,0,1-.233-.562l1.414-1.413-1.414-1.414a.329.329,0,1,1,.466-.466l1.646,1.646a.329.329,0,0,1,0,.466l-1.646,1.646A.327.327,0,0,1,400.333,131.921Zm0,0" transform="translate(-391.773 -125.329)" fill="#333"/>
        <path id="Path_1054" data-name="Path 1054" d="M3.511,10.543a.9.9,0,0,1-.272-.041L.6,9.622A.886.886,0,0,1,0,8.787V.886A.879.879,0,0,1,.878.008.905.905,0,0,1,1.15.049l2.642.88a.886.886,0,0,1,.6.835v7.9a.879.879,0,0,1-.878.878ZM.878.666a.22.22,0,0,0-.22.22v7.9A.228.228,0,0,0,.81,9l2.629.876a.238.238,0,0,0,.072.01.22.22,0,0,0,.219-.22v-7.9a.228.228,0,0,0-.152-.212L.949.676A.238.238,0,0,0,.878.666Zm0,0" transform="translate(0 0)" fill="#333"/>
        <path id="Path_1055" data-name="Path 1055" d="M32.813,3.52a.329.329,0,0,1-.329-.329V1.215a.549.549,0,0,0-.549-.549H27a.329.329,0,0,1,0-.658h4.938a1.208,1.208,0,0,1,1.207,1.207V3.191A.329.329,0,0,1,32.813,3.52Zm0,0" transform="translate(-26.119)" fill="#333"/>
        <path id="Path_1056" data-name="Path 1056" d="M183.417,280.852h-1.756a.329.329,0,0,1,0-.658h1.756a.549.549,0,0,0,.549-.549v-1.975a.329.329,0,1,1,.658,0v1.975A1.208,1.208,0,0,1,183.417,280.852Zm0,0" transform="translate(-177.601 -271.625)" fill="#333"/>
      </g>
    </g>
  </g>
</svg>
