<svg xmlns="http://www.w3.org/2000/svg" width="26.81" height="26.807" viewBox="0 0 26.81 26.807">
  <g id="phone" transform="translate(0 -0.004)">
    <path id="Path_1014" data-name="Path 1014" d="M26.588,21.07c-.558-1.054-3.351-3.137-3.351-3.137l-1.072-.685c-.787-.449-1.737-.5-2.186.3A17.945,17.945,0,0,1,18.56,19.1a2.642,2.642,0,0,1-3.758-.373l-2.854-2.854L9.093,13.019A2.642,2.642,0,0,1,8.72,9.26a17.945,17.945,0,0,1,1.551-1.418c.8-.449.75-1.4.3-2.186,0,0-2.039-3.48-3.822-4.423a1.954,1.954,0,0,0-2.3.345L3.192,2.838c-4,4-2.03,8.513,1.969,12.512L8.815,19l3.655,3.655c2.551,2.551,5.312,4.276,8.337,4.129a6.583,6.583,0,0,0,4.175-2.16l1.261-1.261A1.955,1.955,0,0,0,26.588,21.07Z" transform="translate(-0.505 -0.504)" fill="#ffc947"/>
    <path id="Path_1015" data-name="Path 1015" d="M26.523,20.334c-1-1.887-4.464-3.932-4.616-4.022a2.754,2.754,0,0,0-1.345-.388,1.673,1.673,0,0,0-1.5.835,16.663,16.663,0,0,1-1.288,1.425,2.143,2.143,0,0,1-3.128-.313L8.94,12.162a2.151,2.151,0,0,1-.314-3.126,16.67,16.67,0,0,1,1.427-1.291,1.649,1.649,0,0,0,.768-.992A2.455,2.455,0,0,0,10.5,4.9C10.41,4.752,8.364,1.286,6.478.289A2.451,2.451,0,0,0,3.6.722L2.336,1.983A6.893,6.893,0,0,0,.188,8.7,14.214,14.214,0,0,0,4.3,15.2l7.309,7.309c2.856,2.856,5.578,4.3,8.092,4.3h0a7.158,7.158,0,0,0,5.122-2.335l1.261-1.261A2.439,2.439,0,0,0,26.523,20.334Zm-1.136,2.178-1.261,1.261a6.2,6.2,0,0,1-4.419,2.044h0c-2.241,0-4.727-1.35-7.39-4.013L5.008,14.495A13.279,13.279,0,0,1,1.157,8.479,5.885,5.885,0,0,1,3.039,2.686L4.3,1.425a1.457,1.457,0,0,1,1.713-.257c1.637.866,3.606,4.2,3.623,4.23a1.528,1.528,0,0,1,.227,1.091.667.667,0,0,1-.339.415l-.075.052A14.656,14.656,0,0,0,7.8,8.477,4.1,4.1,0,0,0,7.193,9.8,7.042,7.042,0,0,1,6.46,7.376a.5.5,0,0,0-.546-.443.5.5,0,0,0-.443.546,9.495,9.495,0,0,0,3.161,5.8c.012.01.028.014.041.023l5.274,5.273c.022.022.045.041.067.063a.457.457,0,0,0,.053.078,10.371,10.371,0,0,0,5.765,2.626l.052,0a.5.5,0,0,0,.051-.992,8.757,8.757,0,0,1-2.755-.773,4.306,4.306,0,0,0,1.157-.571,14.612,14.612,0,0,0,1.521-1.644l.052-.075a.693.693,0,0,1,.655-.37,1.788,1.788,0,0,1,.847.254c.934.548,3.515,2.266,4.235,3.626A1.451,1.451,0,0,1,25.386,22.512Z" transform="translate(0 0)"/>
  </g>
</svg>
