<svg xmlns="http://www.w3.org/2000/svg" width="50" height="24.563" viewBox="0 0 50 24.563">
  <g id="Group_143" data-name="Group 143" transform="translate(0 -242.488)">
    <path id="Rectangle_7919" data-name="Rectangle 7919" d="M0,0H38.5A11.5,11.5,0,0,1,50,11.5v0A11.5,11.5,0,0,1,38.5,23H0a0,0,0,0,1,0,0V0A0,0,0,0,1,0,0Z" transform="translate(0 243)" fill="#ffc947" opacity="0.5"/>
    <g id="email" transform="translate(-7 215.002)">
      <path id="Path_1019" data-name="Path 1019" d="M56.309,39.654a11.654,11.654,0,1,1-6.66-10.531,11.654,11.654,0,0,1,6.66,10.531Z" fill="#00a780" stroke="#333" stroke-width="1"/>
      <path id="Path_1023" data-name="Path 1023" d="M52.319,51.995v.4a11.619,11.619,0,0,1-13.319,0v-.4A5,5,0,0,1,43.995,47l1.665,1.665L47.325,47a5,5,0,0,1,4.995,4.995Z" transform="translate(-1.005 -3.184)" fill="#ffc947" stroke="#333" stroke-width="1"/>
      <path id="Path_1024" data-name="Path 1024" d="M48.33,44v2.5l-1.665,1.665L45,46.5V44Z" transform="translate(-2.011 -2.681)" fill="#fbc4a9" stroke="#333" stroke-width="1"/>
      <path id="Path_1025" data-name="Path 1025" d="M50.325,36.162v1.665h-.974a1.67,1.67,0,0,1-1.182-.491l-1.174-1.174-.691.691a3.33,3.33,0,0,1-2.356.974H42V36.162a4.162,4.162,0,0,1,8.325,0Z" transform="translate(-1.508 -0.67)" fill="#787680" stroke="#333" stroke-width="1"/>
      <path id="Path_1026" data-name="Path 1026" d="M49.518,38.665a1.67,1.67,0,0,1-1.182-.491L47.162,37l-.691.691a3.33,3.33,0,0,1-2.356.974H43V40.33a3.33,3.33,0,1,0,6.66,0V38.665Z" transform="translate(-1.675 -1.508)" fill="#fbc4a9" stroke="#333" stroke-width="1"/>
    </g>
  </g>
</svg>
